{
	"asset":{
		"generator":"Khronos glTF Blender I/O v3.6.27",
		"version":"2.0"
	},
	"extensionsUsed":[
		"KHR_materials_specular",
		"KHR_materials_ior"
	],
	"scene":5,
	"scenes":[
		{
			"name":" Hypoplastic Left Heart Syndrome "
		},
		{
			"name":"Atrial septal "
		},
		{
			"name":"Coarctation of the Aorta",
			"nodes":[
				0
			]
		},
		{
			"name":"insufficiency"
		},
		{
			"name":"normal heart"
		},
		{
			"name":"Patent Ductus Arteriosus (PDA)",
			"nodes":[
				1
			]
		},
		{
			"name":"Scene"
		},
		{
			"name":"Scene.001",
			"nodes":[
				2
			]
		},
		{
			"name":"Scene.002",
			"nodes":[
				3
			]
		},
		{
			"name":"Stenosis"
		},
		{
			"name":"tetralogy of fallout"
		},
		{
			"name":"transposition of great arties",
			"nodes":[
				4
			]
		},
		{
			"name":"x_ray",
			"nodes":[
				5
			]
		}
	],
	"nodes":[
		{
			"mesh":0,
			"name":"a1.019",
			"scale":[
				30.725452423095703,
				30.725452423095703,
				30.725452423095703
			],
			"translation":[
				0.03494137153029442,
				2.331519842147827,
				-0.6179376840591431
			]
		},
		{
			"mesh":1,
			"name":"Cylinder.012",
			"rotation":[
				-0.13778570294380188,
				-0.055210307240486145,
				0.18521976470947266,
				0.9714219570159912
			],
			"scale":[
				0.1571698635816574,
				0.3568478524684906,
				0.23967759311199188
			],
			"translation":[
				0.4271368086338043,
				2.293621063232422,
				-0.7858575582504272
			]
		},
		{
			"mesh":2,
			"name":"a1.022",
			"scale":[
				30.725452423095703,
				30.725452423095703,
				30.725452423095703
			],
			"translation":[
				0.030280696228146553,
				1.9577617645263672,
				-0.5615707635879517
			]
		},
		{
			"mesh":3,
			"name":"Cube.001",
			"translation":[
				-0.8523449301719666,
				0.14402161538600922,
				0.11346206068992615
			]
		},
		{
			"mesh":4,
			"name":"Cylinder.010",
			"rotation":[
				0.07941722124814987,
				-0.020265761762857437,
				0.19078890979290009,
				0.9782033562660217
			],
			"scale":[
				0.07229343056678772,
				0.16414375603199005,
				0.1095171719789505
			],
			"translation":[
				0.22128558158874512,
				2.4257774353027344,
				-0.35319602489471436
			]
		},
		{
			"mesh":5,
			"name":"Plane",
			"translation":[
				-6.983325958251953,
				0,
				0
			]
		}
	],
	"animations":[
		{
			"channels":[
				{
					"sampler":0,
					"target":{
						"node":3,
						"path":"scale"
					}
				}
			],
			"name":"action1",
			"samplers":[
				{
					"input":24,
					"interpolation":"LINEAR",
					"output":25
				}
			]
		}
	],
	"materials":[
		{
			"doubleSided":true,
			"extensions":{
				"KHR_materials_specular":{
					"specularColorFactor":[
						1.436471558237221,
						1.436471558237221,
						1.436471558237221
					]
				},
				"KHR_materials_ior":{
					"ior":1.4500000476837158
				}
			},
			"name":"veins.002",
			"pbrMetallicRoughness":{
				"baseColorFactor":[
					0.7230550050735474,
					0.04079781472682953,
					0.03187604621052742,
					1
				],
				"metallicFactor":0,
				"roughnessFactor":0.27977192401885986
			}
		},
		{
			"doubleSided":true,
			"extensions":{
				"KHR_materials_specular":{
					"specularColorFactor":[
						1.8831370288874123,
						1.8831370288874123,
						1.8831370288874123
					]
				},
				"KHR_materials_ior":{
					"ior":1.4500000476837158
				}
			},
			"name":"Material.003",
			"pbrMetallicRoughness":{
				"baseColorFactor":[
					0.8000000715255737,
					0.4576399624347687,
					0.3028404116630554,
					1
				],
				"metallicFactor":0,
				"roughnessFactor":0.6848739385604858
			}
		},
		{
			"doubleSided":true,
			"extensions":{
				"KHR_materials_specular":{
					"specularColorFactor":[
						0,
						0,
						0
					]
				},
				"KHR_materials_ior":{
					"ior":1.4500000476837158
				}
			},
			"name":"veins.014",
			"pbrMetallicRoughness":{
				"baseColorFactor":[
					0.7230550050735474,
					0.04079781472682953,
					0.03187604621052742,
					1
				],
				"metallicFactor":0,
				"roughnessFactor":0.6547718644142151
			}
		},
		{
			"doubleSided":true,
			"extensions":{
				"KHR_materials_specular":{
					"specularColorFactor":[
						1.8831370288874123,
						1.8831370288874123,
						1.8831370288874123
					]
				},
				"KHR_materials_ior":{
					"ior":1.4500000476837158
				}
			},
			"name":"Material.070",
			"pbrMetallicRoughness":{
				"baseColorFactor":[
					0.8000000715255737,
					0.4576399624347687,
					0.3028404116630554,
					1
				],
				"metallicFactor":0,
				"roughnessFactor":0.6848739385604858
			}
		},
		{
			"doubleSided":true,
			"name":"daasaaas",
			"pbrMetallicRoughness":{
				"baseColorFactor":[
					0.8000000715255737,
					0.23750481009483337,
					0.09309069812297821,
					1
				],
				"metallicFactor":0,
				"roughnessFactor":0.5
			}
		}
	],
	"meshes":[
		{
			"name":"Aortic arch.008",
			"primitives":[
				{
					"attributes":{
						"POSITION":0,
						"NORMAL":1,
						"TEXCOORD_0":2
					},
					"indices":3,
					"material":0
				}
			]
		},
		{
			"name":"Cylinder.012",
			"primitives":[
				{
					"attributes":{
						"POSITION":4,
						"NORMAL":5,
						"TEXCOORD_0":6
					},
					"indices":7,
					"material":1
				}
			]
		},
		{
			"name":"Aortic arch.003",
			"primitives":[
				{
					"attributes":{
						"POSITION":8,
						"NORMAL":9,
						"TEXCOORD_0":10
					},
					"indices":11,
					"material":2
				}
			]
		},
		{
			"name":"Cube.001",
			"primitives":[
				{
					"attributes":{
						"POSITION":12,
						"NORMAL":13,
						"TEXCOORD_0":14
					},
					"indices":15
				}
			]
		},
		{
			"name":"Cylinder.010",
			"primitives":[
				{
					"attributes":{
						"POSITION":16,
						"NORMAL":17,
						"TEXCOORD_0":18
					},
					"indices":19,
					"material":3
				}
			]
		},
		{
			"name":"Plane",
			"primitives":[
				{
					"attributes":{
						"POSITION":20,
						"NORMAL":21,
						"TEXCOORD_0":22
					},
					"indices":23,
					"material":4
				}
			]
		}
	],
	"accessors":[
		{
			"bufferView":0,
			"componentType":5126,
			"count":481,
			"max":[
				0.024377696216106415,
				0.028911752626299858,
				0.04423194006085396
			],
			"min":[
				-0.022375039756298065,
				-0.06759251654148102,
				-0.049717165529727936
			],
			"type":"VEC3"
		},
		{
			"bufferView":1,
			"componentType":5126,
			"count":481,
			"type":"VEC3"
		},
		{
			"bufferView":2,
			"componentType":5126,
			"count":481,
			"type":"VEC2"
		},
		{
			"bufferView":3,
			"componentType":5123,
			"count":2592,
			"type":"SCALAR"
		},
		{
			"bufferView":4,
			"componentType":5126,
			"count":390,
			"max":[
				1.1043055057525635,
				1.0000001192092896,
				1.0000001192092896
			],
			"min":[
				-1.1043062210083008,
				-1.0000001192092896,
				-1.0000001192092896
			],
			"type":"VEC3"
		},
		{
			"bufferView":5,
			"componentType":5126,
			"count":390,
			"type":"VEC3"
		},
		{
			"bufferView":6,
			"componentType":5126,
			"count":390,
			"type":"VEC2"
		},
		{
			"bufferView":7,
			"componentType":5123,
			"count":1920,
			"type":"SCALAR"
		},
		{
			"bufferView":8,
			"componentType":5126,
			"count":802,
			"max":[
				0.024236321449279785,
				0.048445332795381546,
				0.0441478006541729
			],
			"min":[
				-0.023632504045963287,
				-0.0544850155711174,
				-0.05058850720524788
			],
			"type":"VEC3"
		},
		{
			"bufferView":9,
			"componentType":5126,
			"count":802,
			"type":"VEC3"
		},
		{
			"bufferView":10,
			"componentType":5126,
			"count":802,
			"type":"VEC2"
		},
		{
			"bufferView":11,
			"componentType":5123,
			"count":2979,
			"type":"SCALAR"
		},
		{
			"bufferView":12,
			"componentType":5126,
			"count":64,
			"max":[
				1,
				1,
				1
			],
			"min":[
				-1,
				-1,
				-1
			],
			"type":"VEC3"
		},
		{
			"bufferView":13,
			"componentType":5126,
			"count":64,
			"type":"VEC3"
		},
		{
			"bufferView":14,
			"componentType":5126,
			"count":64,
			"type":"VEC2"
		},
		{
			"bufferView":15,
			"componentType":5123,
			"count":96,
			"type":"SCALAR"
		},
		{
			"bufferView":16,
			"componentType":5126,
			"count":120,
			"max":[
				1.0008350610733032,
				1.0018806457519531,
				1
			],
			"min":[
				-1.0008350610733032,
				-1.0088157653808594,
				-1
			],
			"type":"VEC3"
		},
		{
			"bufferView":17,
			"componentType":5126,
			"count":120,
			"type":"VEC3"
		},
		{
			"bufferView":18,
			"componentType":5126,
			"count":120,
			"type":"VEC2"
		},
		{
			"bufferView":19,
			"componentType":5123,
			"count":492,
			"type":"SCALAR"
		},
		{
			"bufferView":20,
			"componentType":5126,
			"count":4,
			"max":[
				1,
				0,
				1
			],
			"min":[
				-1,
				0,
				-1
			],
			"type":"VEC3"
		},
		{
			"bufferView":21,
			"componentType":5126,
			"count":4,
			"type":"VEC3"
		},
		{
			"bufferView":22,
			"componentType":5126,
			"count":4,
			"type":"VEC2"
		},
		{
			"bufferView":23,
			"componentType":5123,
			"count":6,
			"type":"SCALAR"
		},
		{
			"bufferView":24,
			"componentType":5126,
			"count":50,
			"max":[
				2.0833333333333335
			],
			"min":[
				0.041666666666666664
			],
			"type":"SCALAR"
		},
		{
			"bufferView":25,
			"componentType":5126,
			"count":50,
			"type":"VEC3"
		}
	],
	"bufferViews":[
		{
			"buffer":0,
			"byteLength":5772,
			"byteOffset":0,
			"target":34962
		},
		{
			"buffer":0,
			"byteLength":5772,
			"byteOffset":5772,
			"target":34962
		},
		{
			"buffer":0,
			"byteLength":3848,
			"byteOffset":11544,
			"target":34962
		},
		{
			"buffer":0,
			"byteLength":5184,
			"byteOffset":15392,
			"target":34963
		},
		{
			"buffer":0,
			"byteLength":4680,
			"byteOffset":20576,
			"target":34962
		},
		{
			"buffer":0,
			"byteLength":4680,
			"byteOffset":25256,
			"target":34962
		},
		{
			"buffer":0,
			"byteLength":3120,
			"byteOffset":29936,
			"target":34962
		},
		{
			"buffer":0,
			"byteLength":3840,
			"byteOffset":33056,
			"target":34963
		},
		{
			"buffer":0,
			"byteLength":9624,
			"byteOffset":36896,
			"target":34962
		},
		{
			"buffer":0,
			"byteLength":9624,
			"byteOffset":46520,
			"target":34962
		},
		{
			"buffer":0,
			"byteLength":6416,
			"byteOffset":56144,
			"target":34962
		},
		{
			"buffer":0,
			"byteLength":5958,
			"byteOffset":62560,
			"target":34963
		},
		{
			"buffer":0,
			"byteLength":768,
			"byteOffset":68520,
			"target":34962
		},
		{
			"buffer":0,
			"byteLength":768,
			"byteOffset":69288,
			"target":34962
		},
		{
			"buffer":0,
			"byteLength":512,
			"byteOffset":70056,
			"target":34962
		},
		{
			"buffer":0,
			"byteLength":192,
			"byteOffset":70568,
			"target":34963
		},
		{
			"buffer":0,
			"byteLength":1440,
			"byteOffset":70760,
			"target":34962
		},
		{
			"buffer":0,
			"byteLength":1440,
			"byteOffset":72200,
			"target":34962
		},
		{
			"buffer":0,
			"byteLength":960,
			"byteOffset":73640,
			"target":34962
		},
		{
			"buffer":0,
			"byteLength":984,
			"byteOffset":74600,
			"target":34963
		},
		{
			"buffer":0,
			"byteLength":48,
			"byteOffset":75584,
			"target":34962
		},
		{
			"buffer":0,
			"byteLength":48,
			"byteOffset":75632,
			"target":34962
		},
		{
			"buffer":0,
			"byteLength":32,
			"byteOffset":75680,
			"target":34962
		},
		{
			"buffer":0,
			"byteLength":12,
			"byteOffset":75712,
			"target":34963
		},
		{
			"buffer":0,
			"byteLength":200,
			"byteOffset":75724
		},
		{
			"buffer":0,
			"byteLength":600,
			"byteOffset":75924
		}
	],
	"buffers":[
		{
			"byteLength":76524,
			"uri":"data:application/octet-stream;base64,"
		}
	]
}
