{
	"asset":{
		"generator":"Khronos glTF Blender I/O v3.6.27",
		"version":"2.0"
	},
	"extensionsUsed":[
		"KHR_materials_specular",
		"KHR_materials_ior",
		"KHR_materials_clearcoat"
	],
	"scene":7,
	"scenes":[
		{
			"name":" Hypoplastic Left Heart Syndrome "
		},
		{
			"name":"Atrial septal "
		},
		{
			"name":"Coarctation of the Aorta"
		},
		{
			"name":"insufficiency"
		},
		{
			"name":"normal heart",
			"nodes":[
				0
			]
		},
		{
			"name":"Patent Ductus Arteriosus (PDA)",
			"nodes":[
				1
			]
		},
		{
			"name":"Scene"
		},
		{
			"name":"Scene.001",
			"nodes":[
				2
			]
		},
		{
			"name":"Scene.002",
			"nodes":[
				3
			]
		},
		{
			"name":"Stenosis"
		},
		{
			"name":"tetralogy of fallout"
		},
		{
			"name":"transposition of great arties",
			"nodes":[
				4
			]
		},
		{
			"name":"x_ray",
			"nodes":[
				5
			]
		}
	],
	"nodes":[
		{
			"mesh":0,
			"name":"c1.001",
			"scale":[
				30.725452423095703,
				30.725452423095703,
				30.725452423095703
			],
			"translation":[
				1.3414727449417114,
				-0.4932534694671631,
				1.4987742900848389
			]
		},
		{
			"mesh":1,
			"name":"a1.020",
			"scale":[
				30.725452423095703,
				30.725452423095703,
				30.725452423095703
			],
			"translation":[
				0.26949357986450195,
				1.5688155889511108,
				-0.2775423526763916
			]
		},
		{
			"mesh":2,
			"name":"leafletreightv.007",
			"scale":[
				30.725452423095703,
				30.725452423095703,
				30.725452423095703
			],
			"translation":[
				-0.19134964048862457,
				-0.058686964213848114,
				0.4336792826652527
			]
		},
		{
			"mesh":3,
			"name":"Cube.001",
			"translation":[
				-0.8523449301719666,
				0.14402161538600922,
				0.11346206068992615
			]
		},
		{
			"mesh":4,
			"name":"Leftventricle.006",
			"scale":[
				30.72545051574707,
				30.72545051574707,
				30.72545051574707
			],
			"translation":[
				1.1581999063491821,
				-0.4881862998008728,
				0.20769940316677094
			]
		},
		{
			"mesh":5,
			"name":"Plane",
			"translation":[
				-6.983325958251953,
				0,
				0
			]
		}
	],
	"animations":[
		{
			"channels":[
				{
					"sampler":0,
					"target":{
						"node":2,
						"path":"weights"
					}
				}
			],
			"name":"Key.112Action",
			"samplers":[
				{
					"input":29,
					"interpolation":"LINEAR",
					"output":30
				}
			]
		},
		{
			"channels":[
				{
					"sampler":0,
					"target":{
						"node":3,
						"path":"scale"
					}
				}
			],
			"name":"action1",
			"samplers":[
				{
					"input":31,
					"interpolation":"LINEAR",
					"output":32
				}
			]
		}
	],
	"materials":[
		{
			"doubleSided":true,
			"name":"Material.002",
			"pbrMetallicRoughness":{
				"baseColorFactor":[
					0.8000000715255737,
					0.0443703718483448,
					0.03262821212410927,
					1
				],
				"metallicFactor":0,
				"roughnessFactor":0.5
			}
		},
		{
			"doubleSided":true,
			"extensions":{
				"KHR_materials_specular":{
					"specularColorFactor":[
						1.436471558237221,
						1.436471558237221,
						1.436471558237221
					]
				},
				"KHR_materials_ior":{
					"ior":1.4500000476837158
				}
			},
			"name":"veins.004",
			"pbrMetallicRoughness":{
				"baseColorFactor":[
					0.028954092413187027,
					0.09509842097759247,
					0.7230550050735474,
					1
				],
				"metallicFactor":0,
				"roughnessFactor":0.27977192401885986
			}
		},
		{
			"doubleSided":true,
			"name":"Material.079",
			"pbrMetallicRoughness":{
				"baseColorFactor":[
					0.8000000715255737,
					0.23546943068504333,
					0.2029634714126587,
					1
				],
				"metallicFactor":0,
				"roughnessFactor":0.5
			}
		},
		{
			"doubleSided":true,
			"extensions":{
				"KHR_materials_clearcoat":{
					"clearcoatFactor":0.10000000149011612,
					"clearcoatRoughnessFactor":0.15272727608680725
				},
				"KHR_materials_specular":{
					"specularColorFactor":[
						1,
						1,
						1
					]
				},
				"KHR_materials_ior":{
					"ior":1
				}
			},
			"name":"heart3_aur.003",
			"pbrMetallicRoughness":{
				"baseColorFactor":[
					0.49102064967155457,
					0.1746472418308258,
					0.1746474802494049,
					1
				],
				"metallicFactor":0.029545454308390617,
				"roughnessFactor":0.1977272778749466
			}
		},
		{
			"doubleSided":true,
			"name":"Material.064",
			"pbrMetallicRoughness":{
				"baseColorFactor":[
					0.8000000715255737,
					0.0594165101647377,
					0.04979688301682472,
					1
				],
				"metallicFactor":0,
				"roughnessFactor":0.5
			}
		},
		{
			"doubleSided":true,
			"name":"daasaaas",
			"pbrMetallicRoughness":{
				"baseColorFactor":[
					0.8000000715255737,
					0.23750481009483337,
					0.09309069812297821,
					1
				],
				"metallicFactor":0,
				"roughnessFactor":0.5
			}
		}
	],
	"meshes":[
		{
			"name":"Anterior interventricular artery.002",
			"primitives":[
				{
					"attributes":{
						"POSITION":0,
						"NORMAL":1,
						"TEXCOORD_0":2
					},
					"indices":3,
					"material":0
				}
			]
		},
		{
			"name":"Inferior lobar artery of right lung.005",
			"primitives":[
				{
					"attributes":{
						"POSITION":4,
						"NORMAL":5,
						"TEXCOORD_0":6
					},
					"indices":7,
					"material":1
				}
			]
		},
		{
			"extras":{
				"targetNames":[
					"Lattice"
				]
			},
			"name":"Septal leaflet of right atrioventricular valve.008",
			"primitives":[
				{
					"attributes":{
						"POSITION":8,
						"NORMAL":9
					},
					"indices":10,
					"material":2,
					"targets":[
						{
							"POSITION":11,
							"NORMAL":12
						}
					]
				}
			],
			"weights":[
				0
			]
		},
		{
			"name":"Cube.001",
			"primitives":[
				{
					"attributes":{
						"POSITION":13,
						"NORMAL":14,
						"TEXCOORD_0":15
					},
					"indices":16
				}
			]
		},
		{
			"name":"Left ventricle.008",
			"primitives":[
				{
					"attributes":{
						"POSITION":17,
						"NORMAL":18,
						"TEXCOORD_0":19
					},
					"indices":20,
					"material":3
				},
				{
					"attributes":{
						"POSITION":21,
						"NORMAL":22,
						"TEXCOORD_0":23
					},
					"indices":24,
					"material":4
				}
			]
		},
		{
			"name":"Plane",
			"primitives":[
				{
					"attributes":{
						"POSITION":25,
						"NORMAL":26,
						"TEXCOORD_0":27
					},
					"indices":28,
					"material":5
				}
			]
		}
	],
	"accessors":[
		{
			"bufferView":0,
			"componentType":5126,
			"count":6318,
			"max":[
				0.01735818199813366,
				0.05011262744665146,
				0.012433161959052086
			],
			"min":[
				-0.02177441492676735,
				-0.03165111690759659,
				-0.04380980506539345
			],
			"type":"VEC3"
		},
		{
			"bufferView":1,
			"componentType":5126,
			"count":6318,
			"type":"VEC3"
		},
		{
			"bufferView":2,
			"componentType":5126,
			"count":6318,
			"type":"VEC2"
		},
		{
			"bufferView":3,
			"componentType":5123,
			"count":34560,
			"type":"SCALAR"
		},
		{
			"bufferView":4,
			"componentType":5126,
			"count":2873,
			"max":[
				0.04540208727121353,
				0.017153166234493256,
				0.0540752187371254
			],
			"min":[
				-0.07692307233810425,
				-0.030923739075660706,
				-0.04875288903713226
			],
			"type":"VEC3"
		},
		{
			"bufferView":5,
			"componentType":5126,
			"count":2873,
			"type":"VEC3"
		},
		{
			"bufferView":6,
			"componentType":5126,
			"count":2873,
			"type":"VEC2"
		},
		{
			"bufferView":7,
			"componentType":5123,
			"count":15480,
			"type":"SCALAR"
		},
		{
			"bufferView":8,
			"componentType":5126,
			"count":4506,
			"max":[
				0.015821876004338264,
				0.01137273944914341,
				0.019755445420742035
			],
			"min":[
				-0.019746653735637665,
				-0.012046691961586475,
				-0.016215452924370766
			],
			"type":"VEC3"
		},
		{
			"bufferView":9,
			"componentType":5126,
			"count":4506,
			"type":"VEC3"
		},
		{
			"bufferView":10,
			"componentType":5123,
			"count":27120,
			"type":"SCALAR"
		},
		{
			"bufferView":11,
			"componentType":5126,
			"count":4506,
			"max":[
				0.015273535624146461,
				0.00423779571428895,
				0.005796387791633606
			],
			"min":[
				8.902233093976974e-05,
				3.660842776298523e-05,
				-0.0013842377811670303
			],
			"type":"VEC3"
		},
		{
			"bufferView":12,
			"componentType":5126,
			"count":4506,
			"type":"VEC3"
		},
		{
			"bufferView":13,
			"componentType":5126,
			"count":64,
			"max":[
				1,
				1,
				1
			],
			"min":[
				-1,
				-1,
				-1
			],
			"type":"VEC3"
		},
		{
			"bufferView":14,
			"componentType":5126,
			"count":64,
			"type":"VEC3"
		},
		{
			"bufferView":15,
			"componentType":5126,
			"count":64,
			"type":"VEC2"
		},
		{
			"bufferView":16,
			"componentType":5123,
			"count":96,
			"type":"SCALAR"
		},
		{
			"bufferView":17,
			"componentType":5126,
			"count":1358,
			"max":[
				0.031392503529787064,
				0.042609646916389465,
				0.047237951308488846
			],
			"min":[
				-0.047590985894203186,
				-0.038252562284469604,
				-0.040421806275844574
			],
			"type":"VEC3"
		},
		{
			"bufferView":18,
			"componentType":5126,
			"count":1358,
			"type":"VEC3"
		},
		{
			"bufferView":19,
			"componentType":5126,
			"count":1358,
			"type":"VEC2"
		},
		{
			"bufferView":20,
			"componentType":5123,
			"count":7815,
			"type":"SCALAR"
		},
		{
			"bufferView":21,
			"componentType":5126,
			"count":1498,
			"max":[
				0.02210012450814247,
				0.051374778151512146,
				0.03744136542081833
			],
			"min":[
				-0.04870746284723282,
				-0.027959683910012245,
				-0.03940092399716377
			],
			"type":"VEC3"
		},
		{
			"bufferView":22,
			"componentType":5126,
			"count":1498,
			"type":"VEC3"
		},
		{
			"bufferView":23,
			"componentType":5126,
			"count":1498,
			"type":"VEC2"
		},
		{
			"bufferView":24,
			"componentType":5123,
			"count":8781,
			"type":"SCALAR"
		},
		{
			"bufferView":25,
			"componentType":5126,
			"count":4,
			"max":[
				1,
				0,
				1
			],
			"min":[
				-1,
				0,
				-1
			],
			"type":"VEC3"
		},
		{
			"bufferView":26,
			"componentType":5126,
			"count":4,
			"type":"VEC3"
		},
		{
			"bufferView":27,
			"componentType":5126,
			"count":4,
			"type":"VEC2"
		},
		{
			"bufferView":28,
			"componentType":5123,
			"count":6,
			"type":"SCALAR"
		},
		{
			"bufferView":29,
			"componentType":5126,
			"count":100,
			"max":[
				4.166666666666667
			],
			"min":[
				0.041666666666666664
			],
			"type":"SCALAR"
		},
		{
			"bufferView":30,
			"componentType":5126,
			"count":100,
			"type":"SCALAR"
		},
		{
			"bufferView":31,
			"componentType":5126,
			"count":50,
			"max":[
				2.0833333333333335
			],
			"min":[
				0.041666666666666664
			],
			"type":"SCALAR"
		},
		{
			"bufferView":32,
			"componentType":5126,
			"count":50,
			"type":"VEC3"
		}
	],
	"bufferViews":[
		{
			"buffer":0,
			"byteLength":75816,
			"byteOffset":0,
			"target":34962
		},
		{
			"buffer":0,
			"byteLength":75816,
			"byteOffset":75816,
			"target":34962
		},
		{
			"buffer":0,
			"byteLength":50544,
			"byteOffset":151632,
			"target":34962
		},
		{
			"buffer":0,
			"byteLength":69120,
			"byteOffset":202176,
			"target":34963
		},
		{
			"buffer":0,
			"byteLength":34476,
			"byteOffset":271296,
			"target":34962
		},
		{
			"buffer":0,
			"byteLength":34476,
			"byteOffset":305772,
			"target":34962
		},
		{
			"buffer":0,
			"byteLength":22984,
			"byteOffset":340248,
			"target":34962
		},
		{
			"buffer":0,
			"byteLength":30960,
			"byteOffset":363232,
			"target":34963
		},
		{
			"buffer":0,
			"byteLength":54072,
			"byteOffset":394192,
			"target":34962
		},
		{
			"buffer":0,
			"byteLength":54072,
			"byteOffset":448264,
			"target":34962
		},
		{
			"buffer":0,
			"byteLength":54240,
			"byteOffset":502336,
			"target":34963
		},
		{
			"buffer":0,
			"byteLength":54072,
			"byteOffset":556576,
			"target":34962
		},
		{
			"buffer":0,
			"byteLength":54072,
			"byteOffset":610648,
			"target":34962
		},
		{
			"buffer":0,
			"byteLength":768,
			"byteOffset":664720,
			"target":34962
		},
		{
			"buffer":0,
			"byteLength":768,
			"byteOffset":665488,
			"target":34962
		},
		{
			"buffer":0,
			"byteLength":512,
			"byteOffset":666256,
			"target":34962
		},
		{
			"buffer":0,
			"byteLength":192,
			"byteOffset":666768,
			"target":34963
		},
		{
			"buffer":0,
			"byteLength":16296,
			"byteOffset":666960,
			"target":34962
		},
		{
			"buffer":0,
			"byteLength":16296,
			"byteOffset":683256,
			"target":34962
		},
		{
			"buffer":0,
			"byteLength":10864,
			"byteOffset":699552,
			"target":34962
		},
		{
			"buffer":0,
			"byteLength":15630,
			"byteOffset":710416,
			"target":34963
		},
		{
			"buffer":0,
			"byteLength":17976,
			"byteOffset":726048,
			"target":34962
		},
		{
			"buffer":0,
			"byteLength":17976,
			"byteOffset":744024,
			"target":34962
		},
		{
			"buffer":0,
			"byteLength":11984,
			"byteOffset":762000,
			"target":34962
		},
		{
			"buffer":0,
			"byteLength":17562,
			"byteOffset":773984,
			"target":34963
		},
		{
			"buffer":0,
			"byteLength":48,
			"byteOffset":791548,
			"target":34962
		},
		{
			"buffer":0,
			"byteLength":48,
			"byteOffset":791596,
			"target":34962
		},
		{
			"buffer":0,
			"byteLength":32,
			"byteOffset":791644,
			"target":34962
		},
		{
			"buffer":0,
			"byteLength":12,
			"byteOffset":791676,
			"target":34963
		},
		{
			"buffer":0,
			"byteLength":400,
			"byteOffset":791688
		},
		{
			"buffer":0,
			"byteLength":400,
			"byteOffset":792088
		},
		{
			"buffer":0,
			"byteLength":200,
			"byteOffset":792488
		},
		{
			"buffer":0,
			"byteLength":600,
			"byteOffset":792688
		}
	],
	"buffers":[
		{
			"byteLength":793288,
			"uri":"data:application/octet-stream;base64,"
		}
	]
}
