{
	"asset":{
		"generator":"Khronos glTF Blender I/O v3.6.27",
		"version":"2.0"
	},
	"extensionsUsed":[
		"KHR_materials_specular",
		"KHR_materials_ior",
		"KHR_materials_clearcoat"
	],
	"scene":7,
	"scenes":[
		{
			"name":" Hypoplastic Left Heart Syndrome "
		},
		{
			"name":"Atrial septal "
		},
		{
			"name":"Coarctation of the Aorta"
		},
		{
			"name":"insufficiency"
		},
		{
			"name":"normal heart",
			"nodes":[
				0
			]
		},
		{
			"name":"Patent Ductus Arteriosus (PDA)",
			"nodes":[
				1
			]
		},
		{
			"name":"Scene"
		},
		{
			"name":"Scene.001",
			"nodes":[
				2
			]
		},
		{
			"name":"Scene.002",
			"nodes":[
				3
			]
		},
		{
			"name":"Stenosis"
		},
		{
			"name":"tetralogy of fallout"
		},
		{
			"name":"transposition of great arties",
			"nodes":[
				4
			]
		},
		{
			"name":"x_ray",
			"nodes":[
				5
			]
		}
	],
	"nodes":[
		{
			"mesh":0,
			"name":"c1.001",
			"scale":[
				30.725452423095703,
				30.725452423095703,
				30.725452423095703
			],
			"translation":[
				1.3414727449417114,
				-0.4932534694671631,
				1.4987742900848389
			]
		},
		{
			"mesh":1,
			"name":"a1.020",
			"scale":[
				30.725452423095703,
				30.725452423095703,
				30.725452423095703
			],
			"translation":[
				0.26949357986450195,
				1.5688155889511108,
				-0.2775423526763916
			]
		},
		{
			"mesh":2,
			"name":"c1.071",
			"translation":[
				0.3489323556423187,
				-0.6169911026954651,
				0.01056432630866766
			]
		},
		{
			"mesh":3,
			"name":"Cube.001",
			"translation":[
				-0.8523449301719666,
				0.14402161538600922,
				0.11346206068992615
			]
		},
		{
			"mesh":4,
			"name":"Leftventricle.006",
			"scale":[
				30.72545051574707,
				30.72545051574707,
				30.72545051574707
			],
			"translation":[
				1.1581999063491821,
				-0.4881862998008728,
				0.20769940316677094
			]
		},
		{
			"mesh":5,
			"name":"Plane",
			"translation":[
				-6.983325958251953,
				0,
				0
			]
		}
	],
	"animations":[
		{
			"channels":[
				{
					"sampler":0,
					"target":{
						"node":2,
						"path":"weights"
					}
				}
			],
			"name":"Key.120Action",
			"samplers":[
				{
					"input":40,
					"interpolation":"LINEAR",
					"output":41
				}
			]
		},
		{
			"channels":[
				{
					"sampler":0,
					"target":{
						"node":3,
						"path":"scale"
					}
				}
			],
			"name":"action1",
			"samplers":[
				{
					"input":42,
					"interpolation":"LINEAR",
					"output":43
				}
			]
		}
	],
	"materials":[
		{
			"doubleSided":true,
			"name":"Material.002",
			"pbrMetallicRoughness":{
				"baseColorFactor":[
					0.8000000715255737,
					0.0443703718483448,
					0.03262821212410927,
					1
				],
				"metallicFactor":0,
				"roughnessFactor":0.5
			}
		},
		{
			"doubleSided":true,
			"extensions":{
				"KHR_materials_specular":{
					"specularColorFactor":[
						1.436471558237221,
						1.436471558237221,
						1.436471558237221
					]
				},
				"KHR_materials_ior":{
					"ior":1.4500000476837158
				}
			},
			"name":"veins.004",
			"pbrMetallicRoughness":{
				"baseColorFactor":[
					0.028954092413187027,
					0.09509842097759247,
					0.7230550050735474,
					1
				],
				"metallicFactor":0,
				"roughnessFactor":0.27977192401885986
			}
		},
		{
			"doubleSided":true,
			"name":"Material.074",
			"pbrMetallicRoughness":{
				"baseColorFactor":[
					0.056085970252752304,
					0.06735634058713913,
					0.8000000715255737,
					1
				],
				"metallicFactor":0,
				"roughnessFactor":0.5
			}
		},
		{
			"doubleSided":true,
			"name":"Material.085",
			"pbrMetallicRoughness":{
				"baseColorFactor":[
					0.056085970252752304,
					0.06735634058713913,
					0.8000000715255737,
					1
				],
				"metallicFactor":0,
				"roughnessFactor":0.5
			}
		},
		{
			"doubleSided":true,
			"extensions":{
				"KHR_materials_clearcoat":{
					"clearcoatFactor":0.10000000149011612,
					"clearcoatRoughnessFactor":0.15272727608680725
				},
				"KHR_materials_specular":{
					"specularColorFactor":[
						1,
						1,
						1
					]
				},
				"KHR_materials_ior":{
					"ior":1
				}
			},
			"name":"heart3_aur.003",
			"pbrMetallicRoughness":{
				"baseColorFactor":[
					0.49102064967155457,
					0.1746472418308258,
					0.1746474802494049,
					1
				],
				"metallicFactor":0.029545454308390617,
				"roughnessFactor":0.1977272778749466
			}
		},
		{
			"doubleSided":true,
			"name":"Material.064",
			"pbrMetallicRoughness":{
				"baseColorFactor":[
					0.8000000715255737,
					0.0594165101647377,
					0.04979688301682472,
					1
				],
				"metallicFactor":0,
				"roughnessFactor":0.5
			}
		},
		{
			"doubleSided":true,
			"name":"daasaaas",
			"pbrMetallicRoughness":{
				"baseColorFactor":[
					0.8000000715255737,
					0.23750481009483337,
					0.09309069812297821,
					1
				],
				"metallicFactor":0,
				"roughnessFactor":0.5
			}
		}
	],
	"meshes":[
		{
			"name":"Anterior interventricular artery.002",
			"primitives":[
				{
					"attributes":{
						"POSITION":0,
						"NORMAL":1,
						"TEXCOORD_0":2
					},
					"indices":3,
					"material":0
				}
			]
		},
		{
			"name":"Inferior lobar artery of right lung.005",
			"primitives":[
				{
					"attributes":{
						"POSITION":4,
						"NORMAL":5,
						"TEXCOORD_0":6
					},
					"indices":7,
					"material":1
				}
			]
		},
		{
			"extras":{
				"targetNames":[
					"Lattice",
					"Lattice.001"
				]
			},
			"name":"Anterior interventricular artery.019",
			"primitives":[
				{
					"attributes":{
						"POSITION":8,
						"NORMAL":9,
						"TEXCOORD_0":10
					},
					"indices":11,
					"material":2,
					"targets":[
						{
							"POSITION":12,
							"NORMAL":13
						},
						{
							"POSITION":14,
							"NORMAL":15
						}
					]
				},
				{
					"attributes":{
						"POSITION":16,
						"NORMAL":17,
						"TEXCOORD_0":18
					},
					"indices":19,
					"material":3,
					"targets":[
						{
							"POSITION":20,
							"NORMAL":21
						},
						{
							"POSITION":22,
							"NORMAL":23
						}
					]
				}
			],
			"weights":[
				0,
				0
			]
		},
		{
			"name":"Cube.001",
			"primitives":[
				{
					"attributes":{
						"POSITION":24,
						"NORMAL":25,
						"TEXCOORD_0":26
					},
					"indices":27
				}
			]
		},
		{
			"name":"Left ventricle.008",
			"primitives":[
				{
					"attributes":{
						"POSITION":28,
						"NORMAL":29,
						"TEXCOORD_0":30
					},
					"indices":31,
					"material":4
				},
				{
					"attributes":{
						"POSITION":32,
						"NORMAL":33,
						"TEXCOORD_0":34
					},
					"indices":35,
					"material":5
				}
			]
		},
		{
			"name":"Plane",
			"primitives":[
				{
					"attributes":{
						"POSITION":36,
						"NORMAL":37,
						"TEXCOORD_0":38
					},
					"indices":39,
					"material":6
				}
			]
		}
	],
	"accessors":[
		{
			"bufferView":0,
			"componentType":5126,
			"count":6318,
			"max":[
				0.01735818199813366,
				0.05011262744665146,
				0.012433161959052086
			],
			"min":[
				-0.02177441492676735,
				-0.03165111690759659,
				-0.04380980506539345
			],
			"type":"VEC3"
		},
		{
			"bufferView":1,
			"componentType":5126,
			"count":6318,
			"type":"VEC3"
		},
		{
			"bufferView":2,
			"componentType":5126,
			"count":6318,
			"type":"VEC2"
		},
		{
			"bufferView":3,
			"componentType":5123,
			"count":34560,
			"type":"SCALAR"
		},
		{
			"bufferView":4,
			"componentType":5126,
			"count":2873,
			"max":[
				0.04540208727121353,
				0.017153166234493256,
				0.0540752187371254
			],
			"min":[
				-0.07692307233810425,
				-0.030923739075660706,
				-0.04875288903713226
			],
			"type":"VEC3"
		},
		{
			"bufferView":5,
			"componentType":5126,
			"count":2873,
			"type":"VEC3"
		},
		{
			"bufferView":6,
			"componentType":5126,
			"count":2873,
			"type":"VEC2"
		},
		{
			"bufferView":7,
			"componentType":5123,
			"count":15480,
			"type":"SCALAR"
		},
		{
			"bufferView":8,
			"componentType":5126,
			"count":998,
			"max":[
				1.5255930423736572,
				1.636604905128479,
				1.8693739175796509
			],
			"min":[
				0.32389751076698303,
				-0.8770628571510315,
				0.13941159844398499
			],
			"type":"VEC3"
		},
		{
			"bufferView":9,
			"componentType":5126,
			"count":998,
			"type":"VEC3"
		},
		{
			"bufferView":10,
			"componentType":5126,
			"count":998,
			"type":"VEC2"
		},
		{
			"bufferView":11,
			"componentType":5123,
			"count":5181,
			"type":"SCALAR"
		},
		{
			"bufferView":12,
			"componentType":5126,
			"count":998,
			"max":[
				0.16766321659088135,
				0,
				0.08836376667022705
			],
			"min":[
				0,
				-0.19879400730133057,
				-0.03736269474029541
			],
			"type":"VEC3"
		},
		{
			"bufferView":13,
			"componentType":5126,
			"count":998,
			"type":"VEC3"
		},
		{
			"bufferView":14,
			"componentType":5126,
			"count":998,
			"max":[
				0,
				0.018993020057678223,
				0
			],
			"min":[
				-0.042676568031311035,
				0,
				-0.024784564971923828
			],
			"type":"VEC3"
		},
		{
			"bufferView":15,
			"componentType":5126,
			"count":998,
			"type":"VEC3"
		},
		{
			"bufferView":16,
			"componentType":5126,
			"count":3283,
			"max":[
				1.6035261154174805,
				1.277334451675415,
				1.9344267845153809
			],
			"min":[
				-1.39460289478302,
				-1.0751250982284546,
				-1.0970137119293213
			],
			"type":"VEC3"
		},
		{
			"bufferView":17,
			"componentType":5126,
			"count":3283,
			"type":"VEC3"
		},
		{
			"bufferView":18,
			"componentType":5126,
			"count":3283,
			"type":"VEC2"
		},
		{
			"bufferView":19,
			"componentType":5123,
			"count":17217,
			"type":"SCALAR"
		},
		{
			"bufferView":20,
			"componentType":5126,
			"count":3283,
			"max":[
				0.12980186939239502,
				0.0184934139251709,
				0.11034131050109863
			],
			"min":[
				-0.09766873717308044,
				-0.17215019464492798,
				-0.028673887252807617
			],
			"type":"VEC3"
		},
		{
			"bufferView":21,
			"componentType":5126,
			"count":3283,
			"type":"VEC3"
		},
		{
			"bufferView":22,
			"componentType":5126,
			"count":3283,
			"max":[
				0,
				0.05804842710494995,
				0
			],
			"min":[
				-0.04267638921737671,
				0,
				-0.024784445762634277
			],
			"type":"VEC3"
		},
		{
			"bufferView":23,
			"componentType":5126,
			"count":3283,
			"type":"VEC3"
		},
		{
			"bufferView":24,
			"componentType":5126,
			"count":64,
			"max":[
				1,
				1,
				1
			],
			"min":[
				-1,
				-1,
				-1
			],
			"type":"VEC3"
		},
		{
			"bufferView":25,
			"componentType":5126,
			"count":64,
			"type":"VEC3"
		},
		{
			"bufferView":26,
			"componentType":5126,
			"count":64,
			"type":"VEC2"
		},
		{
			"bufferView":27,
			"componentType":5123,
			"count":96,
			"type":"SCALAR"
		},
		{
			"bufferView":28,
			"componentType":5126,
			"count":1358,
			"max":[
				0.031392503529787064,
				0.042609646916389465,
				0.047237951308488846
			],
			"min":[
				-0.047590985894203186,
				-0.038252562284469604,
				-0.040421806275844574
			],
			"type":"VEC3"
		},
		{
			"bufferView":29,
			"componentType":5126,
			"count":1358,
			"type":"VEC3"
		},
		{
			"bufferView":30,
			"componentType":5126,
			"count":1358,
			"type":"VEC2"
		},
		{
			"bufferView":31,
			"componentType":5123,
			"count":7815,
			"type":"SCALAR"
		},
		{
			"bufferView":32,
			"componentType":5126,
			"count":1498,
			"max":[
				0.02210012450814247,
				0.051374778151512146,
				0.03744136542081833
			],
			"min":[
				-0.04870746284723282,
				-0.027959683910012245,
				-0.03940092399716377
			],
			"type":"VEC3"
		},
		{
			"bufferView":33,
			"componentType":5126,
			"count":1498,
			"type":"VEC3"
		},
		{
			"bufferView":34,
			"componentType":5126,
			"count":1498,
			"type":"VEC2"
		},
		{
			"bufferView":35,
			"componentType":5123,
			"count":8781,
			"type":"SCALAR"
		},
		{
			"bufferView":36,
			"componentType":5126,
			"count":4,
			"max":[
				1,
				0,
				1
			],
			"min":[
				-1,
				0,
				-1
			],
			"type":"VEC3"
		},
		{
			"bufferView":37,
			"componentType":5126,
			"count":4,
			"type":"VEC3"
		},
		{
			"bufferView":38,
			"componentType":5126,
			"count":4,
			"type":"VEC2"
		},
		{
			"bufferView":39,
			"componentType":5123,
			"count":6,
			"type":"SCALAR"
		},
		{
			"bufferView":40,
			"componentType":5126,
			"count":100,
			"max":[
				4.166666666666667
			],
			"min":[
				0.041666666666666664
			],
			"type":"SCALAR"
		},
		{
			"bufferView":41,
			"componentType":5126,
			"count":200,
			"type":"SCALAR"
		},
		{
			"bufferView":42,
			"componentType":5126,
			"count":50,
			"max":[
				2.0833333333333335
			],
			"min":[
				0.041666666666666664
			],
			"type":"SCALAR"
		},
		{
			"bufferView":43,
			"componentType":5126,
			"count":50,
			"type":"VEC3"
		}
	],
	"bufferViews":[
		{
			"buffer":0,
			"byteLength":75816,
			"byteOffset":0,
			"target":34962
		},
		{
			"buffer":0,
			"byteLength":75816,
			"byteOffset":75816,
			"target":34962
		},
		{
			"buffer":0,
			"byteLength":50544,
			"byteOffset":151632,
			"target":34962
		},
		{
			"buffer":0,
			"byteLength":69120,
			"byteOffset":202176,
			"target":34963
		},
		{
			"buffer":0,
			"byteLength":34476,
			"byteOffset":271296,
			"target":34962
		},
		{
			"buffer":0,
			"byteLength":34476,
			"byteOffset":305772,
			"target":34962
		},
		{
			"buffer":0,
			"byteLength":22984,
			"byteOffset":340248,
			"target":34962
		},
		{
			"buffer":0,
			"byteLength":30960,
			"byteOffset":363232,
			"target":34963
		},
		{
			"buffer":0,
			"byteLength":11976,
			"byteOffset":394192,
			"target":34962
		},
		{
			"buffer":0,
			"byteLength":11976,
			"byteOffset":406168,
			"target":34962
		},
		{
			"buffer":0,
			"byteLength":7984,
			"byteOffset":418144,
			"target":34962
		},
		{
			"buffer":0,
			"byteLength":10362,
			"byteOffset":426128,
			"target":34963
		},
		{
			"buffer":0,
			"byteLength":11976,
			"byteOffset":436492,
			"target":34962
		},
		{
			"buffer":0,
			"byteLength":11976,
			"byteOffset":448468,
			"target":34962
		},
		{
			"buffer":0,
			"byteLength":11976,
			"byteOffset":460444,
			"target":34962
		},
		{
			"buffer":0,
			"byteLength":11976,
			"byteOffset":472420,
			"target":34962
		},
		{
			"buffer":0,
			"byteLength":39396,
			"byteOffset":484396,
			"target":34962
		},
		{
			"buffer":0,
			"byteLength":39396,
			"byteOffset":523792,
			"target":34962
		},
		{
			"buffer":0,
			"byteLength":26264,
			"byteOffset":563188,
			"target":34962
		},
		{
			"buffer":0,
			"byteLength":34434,
			"byteOffset":589452,
			"target":34963
		},
		{
			"buffer":0,
			"byteLength":39396,
			"byteOffset":623888,
			"target":34962
		},
		{
			"buffer":0,
			"byteLength":39396,
			"byteOffset":663284,
			"target":34962
		},
		{
			"buffer":0,
			"byteLength":39396,
			"byteOffset":702680,
			"target":34962
		},
		{
			"buffer":0,
			"byteLength":39396,
			"byteOffset":742076,
			"target":34962
		},
		{
			"buffer":0,
			"byteLength":768,
			"byteOffset":781472,
			"target":34962
		},
		{
			"buffer":0,
			"byteLength":768,
			"byteOffset":782240,
			"target":34962
		},
		{
			"buffer":0,
			"byteLength":512,
			"byteOffset":783008,
			"target":34962
		},
		{
			"buffer":0,
			"byteLength":192,
			"byteOffset":783520,
			"target":34963
		},
		{
			"buffer":0,
			"byteLength":16296,
			"byteOffset":783712,
			"target":34962
		},
		{
			"buffer":0,
			"byteLength":16296,
			"byteOffset":800008,
			"target":34962
		},
		{
			"buffer":0,
			"byteLength":10864,
			"byteOffset":816304,
			"target":34962
		},
		{
			"buffer":0,
			"byteLength":15630,
			"byteOffset":827168,
			"target":34963
		},
		{
			"buffer":0,
			"byteLength":17976,
			"byteOffset":842800,
			"target":34962
		},
		{
			"buffer":0,
			"byteLength":17976,
			"byteOffset":860776,
			"target":34962
		},
		{
			"buffer":0,
			"byteLength":11984,
			"byteOffset":878752,
			"target":34962
		},
		{
			"buffer":0,
			"byteLength":17562,
			"byteOffset":890736,
			"target":34963
		},
		{
			"buffer":0,
			"byteLength":48,
			"byteOffset":908300,
			"target":34962
		},
		{
			"buffer":0,
			"byteLength":48,
			"byteOffset":908348,
			"target":34962
		},
		{
			"buffer":0,
			"byteLength":32,
			"byteOffset":908396,
			"target":34962
		},
		{
			"buffer":0,
			"byteLength":12,
			"byteOffset":908428,
			"target":34963
		},
		{
			"buffer":0,
			"byteLength":400,
			"byteOffset":908440
		},
		{
			"buffer":0,
			"byteLength":800,
			"byteOffset":908840
		},
		{
			"buffer":0,
			"byteLength":200,
			"byteOffset":909640
		},
		{
			"buffer":0,
			"byteLength":600,
			"byteOffset":909840
		}
	],
	"buffers":[
		{
			"byteLength":910440,
			"uri":"data:application/octet-stream;base64,"
		}
	]
}
