{
	"asset":{
		"generator":"Khronos glTF Blender I/O v3.6.27",
		"version":"2.0"
	},
	"extensionsUsed":[
		"KHR_materials_specular",
		"KHR_materials_ior",
		"KHR_materials_clearcoat"
	],
	"scene":7,
	"scenes":[
		{
			"name":" Hypoplastic Left Heart Syndrome "
		},
		{
			"name":"Atrial septal "
		},
		{
			"name":"Coarctation of the Aorta"
		},
		{
			"name":"insufficiency"
		},
		{
			"name":"normal heart",
			"nodes":[
				0
			]
		},
		{
			"name":"Patent Ductus Arteriosus (PDA)",
			"nodes":[
				1
			]
		},
		{
			"name":"Scene"
		},
		{
			"name":"Scene.001",
			"nodes":[
				2
			]
		},
		{
			"name":"Scene.002",
			"nodes":[
				3
			]
		},
		{
			"name":"Stenosis"
		},
		{
			"name":"tetralogy of fallout"
		},
		{
			"name":"transposition of great arties",
			"nodes":[
				4
			]
		},
		{
			"name":"x_ray",
			"nodes":[
				5
			]
		}
	],
	"nodes":[
		{
			"mesh":0,
			"name":"c1.001",
			"scale":[
				30.725452423095703,
				30.725452423095703,
				30.725452423095703
			],
			"translation":[
				1.3414727449417114,
				-0.4932534694671631,
				1.4987742900848389
			]
		},
		{
			"mesh":1,
			"name":"a1.020",
			"scale":[
				30.725452423095703,
				30.725452423095703,
				30.725452423095703
			],
			"translation":[
				0.26949357986450195,
				1.5688155889511108,
				-0.2775423526763916
			]
		},
		{
			"mesh":2,
			"name":"Inferior papillary muscle of right ventricle.006",
			"scale":[
				30.72545051574707,
				30.72545051574707,
				30.72545051574707
			],
			"translation":[
				0.7764593958854675,
				-0.8927497267723083,
				1.0292410850524902
			]
		},
		{
			"mesh":3,
			"name":"Cube.001",
			"translation":[
				-0.8523449301719666,
				0.14402161538600922,
				0.11346206068992615
			]
		},
		{
			"mesh":4,
			"name":"Leftventricle.006",
			"scale":[
				30.72545051574707,
				30.72545051574707,
				30.72545051574707
			],
			"translation":[
				1.1581999063491821,
				-0.4881862998008728,
				0.20769940316677094
			]
		},
		{
			"mesh":5,
			"name":"Plane",
			"translation":[
				-6.983325958251953,
				0,
				0
			]
		}
	],
	"animations":[
		{
			"channels":[
				{
					"sampler":0,
					"target":{
						"node":2,
						"path":"weights"
					}
				}
			],
			"name":"Key.115Action",
			"samplers":[
				{
					"input":31,
					"interpolation":"LINEAR",
					"output":32
				}
			]
		},
		{
			"channels":[
				{
					"sampler":0,
					"target":{
						"node":3,
						"path":"scale"
					}
				}
			],
			"name":"action1",
			"samplers":[
				{
					"input":33,
					"interpolation":"LINEAR",
					"output":34
				}
			]
		}
	],
	"materials":[
		{
			"doubleSided":true,
			"name":"Material.002",
			"pbrMetallicRoughness":{
				"baseColorFactor":[
					0.8000000715255737,
					0.0443703718483448,
					0.03262821212410927,
					1
				],
				"metallicFactor":0,
				"roughnessFactor":0.5
			}
		},
		{
			"doubleSided":true,
			"extensions":{
				"KHR_materials_specular":{
					"specularColorFactor":[
						1.436471558237221,
						1.436471558237221,
						1.436471558237221
					]
				},
				"KHR_materials_ior":{
					"ior":1.4500000476837158
				}
			},
			"name":"veins.004",
			"pbrMetallicRoughness":{
				"baseColorFactor":[
					0.028954092413187027,
					0.09509842097759247,
					0.7230550050735474,
					1
				],
				"metallicFactor":0,
				"roughnessFactor":0.27977192401885986
			}
		},
		{
			"doubleSided":true,
			"name":"Material.076",
			"pbrMetallicRoughness":{
				"baseColorFactor":[
					0.8000000715255737,
					0.0594165101647377,
					0.04979688301682472,
					1
				],
				"metallicFactor":0,
				"roughnessFactor":0.5
			}
		},
		{
			"doubleSided":true,
			"extensions":{
				"KHR_materials_clearcoat":{
					"clearcoatFactor":0.10000000149011612,
					"clearcoatRoughnessFactor":0.15272727608680725
				},
				"KHR_materials_specular":{
					"specularColorFactor":[
						1,
						1,
						1
					]
				},
				"KHR_materials_ior":{
					"ior":1
				}
			},
			"name":"heart3_aur.003",
			"pbrMetallicRoughness":{
				"baseColorFactor":[
					0.49102064967155457,
					0.1746472418308258,
					0.1746474802494049,
					1
				],
				"metallicFactor":0.029545454308390617,
				"roughnessFactor":0.1977272778749466
			}
		},
		{
			"doubleSided":true,
			"name":"Material.064",
			"pbrMetallicRoughness":{
				"baseColorFactor":[
					0.8000000715255737,
					0.0594165101647377,
					0.04979688301682472,
					1
				],
				"metallicFactor":0,
				"roughnessFactor":0.5
			}
		},
		{
			"doubleSided":true,
			"name":"daasaaas",
			"pbrMetallicRoughness":{
				"baseColorFactor":[
					0.8000000715255737,
					0.23750481009483337,
					0.09309069812297821,
					1
				],
				"metallicFactor":0,
				"roughnessFactor":0.5
			}
		}
	],
	"meshes":[
		{
			"name":"Anterior interventricular artery.002",
			"primitives":[
				{
					"attributes":{
						"POSITION":0,
						"NORMAL":1,
						"TEXCOORD_0":2
					},
					"indices":3,
					"material":0
				}
			]
		},
		{
			"name":"Inferior lobar artery of right lung.005",
			"primitives":[
				{
					"attributes":{
						"POSITION":4,
						"NORMAL":5,
						"TEXCOORD_0":6
					},
					"indices":7,
					"material":1
				}
			]
		},
		{
			"extras":{
				"targetNames":[
					"Lattice",
					"Lattice.001"
				]
			},
			"name":"Inferior papillary muscle of right ventricle.001",
			"primitives":[
				{
					"attributes":{
						"POSITION":8,
						"NORMAL":9
					},
					"indices":10,
					"material":2,
					"targets":[
						{
							"POSITION":11,
							"NORMAL":12
						},
						{
							"POSITION":13,
							"NORMAL":14
						}
					]
				}
			],
			"weights":[
				0,
				0
			]
		},
		{
			"name":"Cube.001",
			"primitives":[
				{
					"attributes":{
						"POSITION":15,
						"NORMAL":16,
						"TEXCOORD_0":17
					},
					"indices":18
				}
			]
		},
		{
			"name":"Left ventricle.008",
			"primitives":[
				{
					"attributes":{
						"POSITION":19,
						"NORMAL":20,
						"TEXCOORD_0":21
					},
					"indices":22,
					"material":3
				},
				{
					"attributes":{
						"POSITION":23,
						"NORMAL":24,
						"TEXCOORD_0":25
					},
					"indices":26,
					"material":4
				}
			]
		},
		{
			"name":"Plane",
			"primitives":[
				{
					"attributes":{
						"POSITION":27,
						"NORMAL":28,
						"TEXCOORD_0":29
					},
					"indices":30,
					"material":5
				}
			]
		}
	],
	"accessors":[
		{
			"bufferView":0,
			"componentType":5126,
			"count":6318,
			"max":[
				0.01735818199813366,
				0.05011262744665146,
				0.012433161959052086
			],
			"min":[
				-0.02177441492676735,
				-0.03165111690759659,
				-0.04380980506539345
			],
			"type":"VEC3"
		},
		{
			"bufferView":1,
			"componentType":5126,
			"count":6318,
			"type":"VEC3"
		},
		{
			"bufferView":2,
			"componentType":5126,
			"count":6318,
			"type":"VEC2"
		},
		{
			"bufferView":3,
			"componentType":5123,
			"count":34560,
			"type":"SCALAR"
		},
		{
			"bufferView":4,
			"componentType":5126,
			"count":2873,
			"max":[
				0.04540208727121353,
				0.017153166234493256,
				0.0540752187371254
			],
			"min":[
				-0.07692307233810425,
				-0.030923739075660706,
				-0.04875288903713226
			],
			"type":"VEC3"
		},
		{
			"bufferView":5,
			"componentType":5126,
			"count":2873,
			"type":"VEC3"
		},
		{
			"bufferView":6,
			"componentType":5126,
			"count":2873,
			"type":"VEC2"
		},
		{
			"bufferView":7,
			"componentType":5123,
			"count":15480,
			"type":"SCALAR"
		},
		{
			"bufferView":8,
			"componentType":5126,
			"count":3309,
			"max":[
				0.03554742783308029,
				0.03932011127471924,
				0.025784064084291458
			],
			"min":[
				-0.030551915988326073,
				-0.02185976505279541,
				-0.036619000136852264
			],
			"type":"VEC3"
		},
		{
			"bufferView":9,
			"componentType":5126,
			"count":3309,
			"type":"VEC3"
		},
		{
			"bufferView":10,
			"componentType":5123,
			"count":19794,
			"type":"SCALAR"
		},
		{
			"bufferView":11,
			"componentType":5126,
			"count":3309,
			"max":[
				0.004892896860837936,
				1.5329569578170776e-06,
				0.0035242531448602676
			],
			"min":[
				-0.0012484453618526459,
				-0.0049955397844314575,
				-0.0011911367764696479
			],
			"type":"VEC3"
		},
		{
			"bufferView":12,
			"componentType":5126,
			"count":3309,
			"type":"VEC3"
		},
		{
			"bufferView":13,
			"componentType":5126,
			"count":3309,
			"max":[
				0,
				0.000989692285656929,
				0
			],
			"min":[
				-0.0012551378458738327,
				0,
				-0.0007171746110543609
			],
			"type":"VEC3"
		},
		{
			"bufferView":14,
			"componentType":5126,
			"count":3309,
			"type":"VEC3"
		},
		{
			"bufferView":15,
			"componentType":5126,
			"count":64,
			"max":[
				1,
				1,
				1
			],
			"min":[
				-1,
				-1,
				-1
			],
			"type":"VEC3"
		},
		{
			"bufferView":16,
			"componentType":5126,
			"count":64,
			"type":"VEC3"
		},
		{
			"bufferView":17,
			"componentType":5126,
			"count":64,
			"type":"VEC2"
		},
		{
			"bufferView":18,
			"componentType":5123,
			"count":96,
			"type":"SCALAR"
		},
		{
			"bufferView":19,
			"componentType":5126,
			"count":1358,
			"max":[
				0.031392503529787064,
				0.042609646916389465,
				0.047237951308488846
			],
			"min":[
				-0.047590985894203186,
				-0.038252562284469604,
				-0.040421806275844574
			],
			"type":"VEC3"
		},
		{
			"bufferView":20,
			"componentType":5126,
			"count":1358,
			"type":"VEC3"
		},
		{
			"bufferView":21,
			"componentType":5126,
			"count":1358,
			"type":"VEC2"
		},
		{
			"bufferView":22,
			"componentType":5123,
			"count":7815,
			"type":"SCALAR"
		},
		{
			"bufferView":23,
			"componentType":5126,
			"count":1498,
			"max":[
				0.02210012450814247,
				0.051374778151512146,
				0.03744136542081833
			],
			"min":[
				-0.04870746284723282,
				-0.027959683910012245,
				-0.03940092399716377
			],
			"type":"VEC3"
		},
		{
			"bufferView":24,
			"componentType":5126,
			"count":1498,
			"type":"VEC3"
		},
		{
			"bufferView":25,
			"componentType":5126,
			"count":1498,
			"type":"VEC2"
		},
		{
			"bufferView":26,
			"componentType":5123,
			"count":8781,
			"type":"SCALAR"
		},
		{
			"bufferView":27,
			"componentType":5126,
			"count":4,
			"max":[
				1,
				0,
				1
			],
			"min":[
				-1,
				0,
				-1
			],
			"type":"VEC3"
		},
		{
			"bufferView":28,
			"componentType":5126,
			"count":4,
			"type":"VEC3"
		},
		{
			"bufferView":29,
			"componentType":5126,
			"count":4,
			"type":"VEC2"
		},
		{
			"bufferView":30,
			"componentType":5123,
			"count":6,
			"type":"SCALAR"
		},
		{
			"bufferView":31,
			"componentType":5126,
			"count":100,
			"max":[
				4.166666666666667
			],
			"min":[
				0.041666666666666664
			],
			"type":"SCALAR"
		},
		{
			"bufferView":32,
			"componentType":5126,
			"count":200,
			"type":"SCALAR"
		},
		{
			"bufferView":33,
			"componentType":5126,
			"count":50,
			"max":[
				2.0833333333333335
			],
			"min":[
				0.041666666666666664
			],
			"type":"SCALAR"
		},
		{
			"bufferView":34,
			"componentType":5126,
			"count":50,
			"type":"VEC3"
		}
	],
	"bufferViews":[
		{
			"buffer":0,
			"byteLength":75816,
			"byteOffset":0,
			"target":34962
		},
		{
			"buffer":0,
			"byteLength":75816,
			"byteOffset":75816,
			"target":34962
		},
		{
			"buffer":0,
			"byteLength":50544,
			"byteOffset":151632,
			"target":34962
		},
		{
			"buffer":0,
			"byteLength":69120,
			"byteOffset":202176,
			"target":34963
		},
		{
			"buffer":0,
			"byteLength":34476,
			"byteOffset":271296,
			"target":34962
		},
		{
			"buffer":0,
			"byteLength":34476,
			"byteOffset":305772,
			"target":34962
		},
		{
			"buffer":0,
			"byteLength":22984,
			"byteOffset":340248,
			"target":34962
		},
		{
			"buffer":0,
			"byteLength":30960,
			"byteOffset":363232,
			"target":34963
		},
		{
			"buffer":0,
			"byteLength":39708,
			"byteOffset":394192,
			"target":34962
		},
		{
			"buffer":0,
			"byteLength":39708,
			"byteOffset":433900,
			"target":34962
		},
		{
			"buffer":0,
			"byteLength":39588,
			"byteOffset":473608,
			"target":34963
		},
		{
			"buffer":0,
			"byteLength":39708,
			"byteOffset":513196,
			"target":34962
		},
		{
			"buffer":0,
			"byteLength":39708,
			"byteOffset":552904,
			"target":34962
		},
		{
			"buffer":0,
			"byteLength":39708,
			"byteOffset":592612,
			"target":34962
		},
		{
			"buffer":0,
			"byteLength":39708,
			"byteOffset":632320,
			"target":34962
		},
		{
			"buffer":0,
			"byteLength":768,
			"byteOffset":672028,
			"target":34962
		},
		{
			"buffer":0,
			"byteLength":768,
			"byteOffset":672796,
			"target":34962
		},
		{
			"buffer":0,
			"byteLength":512,
			"byteOffset":673564,
			"target":34962
		},
		{
			"buffer":0,
			"byteLength":192,
			"byteOffset":674076,
			"target":34963
		},
		{
			"buffer":0,
			"byteLength":16296,
			"byteOffset":674268,
			"target":34962
		},
		{
			"buffer":0,
			"byteLength":16296,
			"byteOffset":690564,
			"target":34962
		},
		{
			"buffer":0,
			"byteLength":10864,
			"byteOffset":706860,
			"target":34962
		},
		{
			"buffer":0,
			"byteLength":15630,
			"byteOffset":717724,
			"target":34963
		},
		{
			"buffer":0,
			"byteLength":17976,
			"byteOffset":733356,
			"target":34962
		},
		{
			"buffer":0,
			"byteLength":17976,
			"byteOffset":751332,
			"target":34962
		},
		{
			"buffer":0,
			"byteLength":11984,
			"byteOffset":769308,
			"target":34962
		},
		{
			"buffer":0,
			"byteLength":17562,
			"byteOffset":781292,
			"target":34963
		},
		{
			"buffer":0,
			"byteLength":48,
			"byteOffset":798856,
			"target":34962
		},
		{
			"buffer":0,
			"byteLength":48,
			"byteOffset":798904,
			"target":34962
		},
		{
			"buffer":0,
			"byteLength":32,
			"byteOffset":798952,
			"target":34962
		},
		{
			"buffer":0,
			"byteLength":12,
			"byteOffset":798984,
			"target":34963
		},
		{
			"buffer":0,
			"byteLength":400,
			"byteOffset":798996
		},
		{
			"buffer":0,
			"byteLength":800,
			"byteOffset":799396
		},
		{
			"buffer":0,
			"byteLength":200,
			"byteOffset":800196
		},
		{
			"buffer":0,
			"byteLength":600,
			"byteOffset":800396
		}
	],
	"buffers":[
		{
			"byteLength":800996,
			"uri":"data:application/octet-stream;base64,"
		}
	]
}
