{
	"asset":{
		"generator":"Khronos glTF Blender I/O v3.6.27",
		"version":"2.0"
	},
	"extensionsUsed":[
		"KHR_materials_specular",
		"KHR_materials_ior",
		"KHR_materials_clearcoat"
	],
	"scene":7,
	"scenes":[
		{
			"name":" Hypoplastic Left Heart Syndrome "
		},
		{
			"name":"Atrial septal "
		},
		{
			"name":"Coarctation of the Aorta"
		},
		{
			"name":"insufficiency"
		},
		{
			"name":"normal heart",
			"nodes":[
				0
			]
		},
		{
			"name":"Patent Ductus Arteriosus (PDA)",
			"nodes":[
				1
			]
		},
		{
			"name":"Scene"
		},
		{
			"name":"Scene.001",
			"nodes":[
				2
			]
		},
		{
			"name":"Scene.002",
			"nodes":[
				3
			]
		},
		{
			"name":"Stenosis"
		},
		{
			"name":"tetralogy of fallout"
		},
		{
			"name":"transposition of great arties",
			"nodes":[
				4
			]
		},
		{
			"name":"x_ray",
			"nodes":[
				5
			]
		}
	],
	"nodes":[
		{
			"mesh":0,
			"name":"c1.001",
			"scale":[
				30.725452423095703,
				30.725452423095703,
				30.725452423095703
			],
			"translation":[
				1.3414727449417114,
				-0.4932534694671631,
				1.4987742900848389
			]
		},
		{
			"mesh":1,
			"name":"a1.020",
			"scale":[
				30.725452423095703,
				30.725452423095703,
				30.725452423095703
			],
			"translation":[
				0.26949357986450195,
				1.5688155889511108,
				-0.2775423526763916
			]
		},
		{
			"mesh":2,
			"name":"c1.075",
			"rotation":[
				0,
				0,
				0.8230715990066528,
				0.5679376721382141
			],
			"scale":[
				30.49596405029297,
				30.49596405029297,
				30.4959659576416
			],
			"translation":[
				0.03542667627334595,
				-0.11110424995422363,
				0.3209657371044159
			]
		},
		{
			"mesh":3,
			"name":"Cube.001",
			"translation":[
				-0.8523449301719666,
				0.14402161538600922,
				0.11346206068992615
			]
		},
		{
			"mesh":4,
			"name":"Leftventricle.006",
			"scale":[
				30.72545051574707,
				30.72545051574707,
				30.72545051574707
			],
			"translation":[
				1.1581999063491821,
				-0.4881862998008728,
				0.20769940316677094
			]
		},
		{
			"mesh":5,
			"name":"Plane",
			"translation":[
				-6.983325958251953,
				0,
				0
			]
		}
	],
	"animations":[
		{
			"channels":[
				{
					"sampler":0,
					"target":{
						"node":2,
						"path":"weights"
					}
				}
			],
			"name":"Key.123Action",
			"samplers":[
				{
					"input":69,
					"interpolation":"LINEAR",
					"output":70
				}
			]
		},
		{
			"channels":[
				{
					"sampler":0,
					"target":{
						"node":3,
						"path":"scale"
					}
				}
			],
			"name":"action1",
			"samplers":[
				{
					"input":71,
					"interpolation":"LINEAR",
					"output":72
				}
			]
		}
	],
	"materials":[
		{
			"doubleSided":true,
			"name":"Material.002",
			"pbrMetallicRoughness":{
				"baseColorFactor":[
					0.8000000715255737,
					0.0443703718483448,
					0.03262821212410927,
					1
				],
				"metallicFactor":0,
				"roughnessFactor":0.5
			}
		},
		{
			"doubleSided":true,
			"extensions":{
				"KHR_materials_specular":{
					"specularColorFactor":[
						1.436471558237221,
						1.436471558237221,
						1.436471558237221
					]
				},
				"KHR_materials_ior":{
					"ior":1.4500000476837158
				}
			},
			"name":"veins.004",
			"pbrMetallicRoughness":{
				"baseColorFactor":[
					0.028954092413187027,
					0.09509842097759247,
					0.7230550050735474,
					1
				],
				"metallicFactor":0,
				"roughnessFactor":0.27977192401885986
			}
		},
		{
			"doubleSided":true,
			"name":"Material.082",
			"pbrMetallicRoughness":{
				"baseColorFactor":[
					0.8000000715255737,
					0.5799821615219116,
					0.06240783631801605,
					1
				],
				"metallicFactor":0,
				"roughnessFactor":0.5
			}
		},
		{
			"doubleSided":true,
			"name":"Material.083",
			"pbrMetallicRoughness":{
				"baseColorFactor":[
					0.8000000715255737,
					0.5799821615219116,
					0.06240783631801605,
					1
				],
				"metallicFactor":0,
				"roughnessFactor":0.5
			}
		},
		{
			"doubleSided":true,
			"name":"Material.084",
			"pbrMetallicRoughness":{
				"baseColorFactor":[
					0.8000000715255737,
					0.5832058787345886,
					0,
					1
				],
				"metallicFactor":0,
				"roughnessFactor":0.5
			}
		},
		{
			"doubleSided":true,
			"extensions":{
				"KHR_materials_clearcoat":{
					"clearcoatFactor":0.10000000149011612,
					"clearcoatRoughnessFactor":0.15272727608680725
				},
				"KHR_materials_specular":{
					"specularColorFactor":[
						1,
						1,
						1
					]
				},
				"KHR_materials_ior":{
					"ior":1
				}
			},
			"name":"heart3_aur.003",
			"pbrMetallicRoughness":{
				"baseColorFactor":[
					0.49102064967155457,
					0.1746472418308258,
					0.1746474802494049,
					1
				],
				"metallicFactor":0.029545454308390617,
				"roughnessFactor":0.1977272778749466
			}
		},
		{
			"doubleSided":true,
			"name":"Material.064",
			"pbrMetallicRoughness":{
				"baseColorFactor":[
					0.8000000715255737,
					0.0594165101647377,
					0.04979688301682472,
					1
				],
				"metallicFactor":0,
				"roughnessFactor":0.5
			}
		},
		{
			"doubleSided":true,
			"name":"daasaaas",
			"pbrMetallicRoughness":{
				"baseColorFactor":[
					0.8000000715255737,
					0.23750481009483337,
					0.09309069812297821,
					1
				],
				"metallicFactor":0,
				"roughnessFactor":0.5
			}
		}
	],
	"meshes":[
		{
			"name":"Anterior interventricular artery.002",
			"primitives":[
				{
					"attributes":{
						"POSITION":0,
						"NORMAL":1,
						"TEXCOORD_0":2
					},
					"indices":3,
					"material":0
				}
			]
		},
		{
			"name":"Inferior lobar artery of right lung.005",
			"primitives":[
				{
					"attributes":{
						"POSITION":4,
						"NORMAL":5,
						"TEXCOORD_0":6
					},
					"indices":7,
					"material":1
				}
			]
		},
		{
			"extras":{
				"targetNames":[
					"Lattice",
					"Lattice.001",
					"Lattice.002",
					"Lattice.003",
					"Lattice.004"
				]
			},
			"name":"Anterior interventricular artery.018",
			"primitives":[
				{
					"attributes":{
						"COLOR_0":8,
						"POSITION":9,
						"NORMAL":10,
						"TEXCOORD_0":11
					},
					"indices":12,
					"material":2,
					"targets":[
						{
							"POSITION":13,
							"NORMAL":14
						},
						{
							"POSITION":15,
							"NORMAL":16
						},
						{
							"POSITION":17,
							"NORMAL":18
						},
						{
							"POSITION":19,
							"NORMAL":20
						},
						{
							"POSITION":21,
							"NORMAL":22
						}
					]
				},
				{
					"attributes":{
						"COLOR_0":23,
						"POSITION":24,
						"NORMAL":25,
						"TEXCOORD_0":26
					},
					"indices":27,
					"material":3,
					"targets":[
						{
							"POSITION":28,
							"NORMAL":29
						},
						{
							"POSITION":30,
							"NORMAL":31
						},
						{
							"POSITION":32,
							"NORMAL":33
						},
						{
							"POSITION":34,
							"NORMAL":35
						},
						{
							"POSITION":36,
							"NORMAL":37
						}
					]
				},
				{
					"attributes":{
						"COLOR_0":38,
						"POSITION":39,
						"NORMAL":40,
						"TEXCOORD_0":41
					},
					"indices":42,
					"material":4,
					"targets":[
						{
							"POSITION":43,
							"NORMAL":44
						},
						{
							"POSITION":45,
							"NORMAL":46
						},
						{
							"POSITION":47,
							"NORMAL":48
						},
						{
							"POSITION":49,
							"NORMAL":50
						},
						{
							"POSITION":51,
							"NORMAL":52
						}
					]
				}
			],
			"weights":[
				0,
				0,
				0,
				0,
				0
			]
		},
		{
			"name":"Cube.001",
			"primitives":[
				{
					"attributes":{
						"POSITION":53,
						"NORMAL":54,
						"TEXCOORD_0":55
					},
					"indices":56
				}
			]
		},
		{
			"name":"Left ventricle.008",
			"primitives":[
				{
					"attributes":{
						"POSITION":57,
						"NORMAL":58,
						"TEXCOORD_0":59
					},
					"indices":60,
					"material":5
				},
				{
					"attributes":{
						"POSITION":61,
						"NORMAL":62,
						"TEXCOORD_0":63
					},
					"indices":64,
					"material":6
				}
			]
		},
		{
			"name":"Plane",
			"primitives":[
				{
					"attributes":{
						"POSITION":65,
						"NORMAL":66,
						"TEXCOORD_0":67
					},
					"indices":68,
					"material":7
				}
			]
		}
	],
	"accessors":[
		{
			"bufferView":0,
			"componentType":5126,
			"count":6318,
			"max":[
				0.01735818199813366,
				0.05011262744665146,
				0.012433161959052086
			],
			"min":[
				-0.02177441492676735,
				-0.03165111690759659,
				-0.04380980506539345
			],
			"type":"VEC3"
		},
		{
			"bufferView":1,
			"componentType":5126,
			"count":6318,
			"type":"VEC3"
		},
		{
			"bufferView":2,
			"componentType":5126,
			"count":6318,
			"type":"VEC2"
		},
		{
			"bufferView":3,
			"componentType":5123,
			"count":34560,
			"type":"SCALAR"
		},
		{
			"bufferView":4,
			"componentType":5126,
			"count":2873,
			"max":[
				0.04540208727121353,
				0.017153166234493256,
				0.0540752187371254
			],
			"min":[
				-0.07692307233810425,
				-0.030923739075660706,
				-0.04875288903713226
			],
			"type":"VEC3"
		},
		{
			"bufferView":5,
			"componentType":5126,
			"count":2873,
			"type":"VEC3"
		},
		{
			"bufferView":6,
			"componentType":5126,
			"count":2873,
			"type":"VEC2"
		},
		{
			"bufferView":7,
			"componentType":5123,
			"count":15480,
			"type":"SCALAR"
		},
		{
			"bufferView":8,
			"componentType":5123,
			"count":1474,
			"normalized":true,
			"type":"VEC4"
		},
		{
			"bufferView":9,
			"componentType":5126,
			"count":1474,
			"max":[
				0.056950949132442474,
				0.04925559088587761,
				0.008286324329674244
			],
			"min":[
				-0.00888399314135313,
				-0.0441691055893898,
				-0.05231184884905815
			],
			"type":"VEC3"
		},
		{
			"bufferView":10,
			"componentType":5126,
			"count":1474,
			"type":"VEC3"
		},
		{
			"bufferView":11,
			"componentType":5126,
			"count":1474,
			"type":"VEC2"
		},
		{
			"bufferView":12,
			"componentType":5123,
			"count":7359,
			"type":"SCALAR"
		},
		{
			"bufferView":13,
			"componentType":5126,
			"count":1474,
			"max":[
				0,
				2.4459099222440273e-05,
				0
			],
			"min":[
				-6.443355232477188e-05,
				0,
				0
			],
			"type":"VEC3"
		},
		{
			"bufferView":14,
			"componentType":5126,
			"count":1474,
			"type":"VEC3"
		},
		{
			"bufferView":15,
			"componentType":5126,
			"count":1474,
			"max":[
				0,
				0,
				0
			],
			"min":[
				0,
				0,
				0
			],
			"type":"VEC3"
		},
		{
			"bufferView":16,
			"componentType":5126,
			"count":1474,
			"type":"VEC3"
		},
		{
			"bufferView":17,
			"componentType":5126,
			"count":1474,
			"max":[
				0.0032831989228725433,
				1.5867874026298523e-05,
				0
			],
			"min":[
				0,
				-0.0007071457803249359,
				-0.002941761165857315
			],
			"type":"VEC3"
		},
		{
			"bufferView":18,
			"componentType":5126,
			"count":1474,
			"type":"VEC3"
		},
		{
			"bufferView":19,
			"componentType":5126,
			"count":1474,
			"max":[
				0.0032831989228725433,
				0.005637146532535553,
				0
			],
			"min":[
				0,
				-0.0007071457803249359,
				-0.002941761165857315
			],
			"type":"VEC3"
		},
		{
			"bufferView":20,
			"componentType":5126,
			"count":1474,
			"type":"VEC3"
		},
		{
			"bufferView":21,
			"componentType":5126,
			"count":1474,
			"max":[
				0,
				2.4459099222440273e-05,
				0
			],
			"min":[
				-0.0004051271826028824,
				-0.001067236065864563,
				0
			],
			"type":"VEC3"
		},
		{
			"bufferView":22,
			"componentType":5126,
			"count":1474,
			"type":"VEC3"
		},
		{
			"bufferView":23,
			"componentType":5123,
			"count":1317,
			"normalized":true,
			"type":"VEC4"
		},
		{
			"bufferView":24,
			"componentType":5126,
			"count":1317,
			"max":[
				0.018449990078806877,
				0.02502443641424179,
				0.0517192967236042
			],
			"min":[
				-0.0578908696770668,
				-0.03293707221746445,
				-0.004672383889555931
			],
			"type":"VEC3"
		},
		{
			"bufferView":25,
			"componentType":5126,
			"count":1317,
			"type":"VEC3"
		},
		{
			"bufferView":26,
			"componentType":5126,
			"count":1317,
			"type":"VEC2"
		},
		{
			"bufferView":27,
			"componentType":5123,
			"count":5829,
			"type":"SCALAR"
		},
		{
			"bufferView":28,
			"componentType":5126,
			"count":1317,
			"max":[
				0.0012072217650711536,
				0.0022786115296185017,
				0.0036789029836654663
			],
			"min":[
				-0.006460219621658325,
				-0.0016643665730953217,
				-0.0009061247110366821
			],
			"type":"VEC3"
		},
		{
			"bufferView":29,
			"componentType":5126,
			"count":1317,
			"type":"VEC3"
		},
		{
			"bufferView":30,
			"componentType":5126,
			"count":1317,
			"max":[
				0.0010648183524608612,
				0.0010926369577646255,
				0
			],
			"min":[
				0,
				-0.0001965044066309929,
				-0.0008127130568027496
			],
			"type":"VEC3"
		},
		{
			"bufferView":31,
			"componentType":5126,
			"count":1317,
			"type":"VEC3"
		},
		{
			"bufferView":32,
			"componentType":5126,
			"count":1317,
			"max":[
				9.530223906040192e-06,
				0,
				0
			],
			"min":[
				0,
				-3.6172568798065186e-06,
				0
			],
			"type":"VEC3"
		},
		{
			"bufferView":33,
			"componentType":5126,
			"count":1317,
			"type":"VEC3"
		},
		{
			"bufferView":34,
			"componentType":5126,
			"count":1317,
			"max":[
				9.530223906040192e-06,
				1.4621764421463013e-07,
				0
			],
			"min":[
				0,
				-3.6172568798065186e-06,
				0
			],
			"type":"VEC3"
		},
		{
			"bufferView":35,
			"componentType":5126,
			"count":1317,
			"type":"VEC3"
		},
		{
			"bufferView":36,
			"componentType":5126,
			"count":1317,
			"max":[
				0.0012072217650711536,
				0.0022786115296185017,
				0.0036789029836654663
			],
			"min":[
				-0.006460219621658325,
				-0.0016643665730953217,
				-0.0009061247110366821
			],
			"type":"VEC3"
		},
		{
			"bufferView":37,
			"componentType":5126,
			"count":1317,
			"type":"VEC3"
		},
		{
			"bufferView":38,
			"componentType":5123,
			"count":2716,
			"normalized":true,
			"type":"VEC4"
		},
		{
			"bufferView":39,
			"componentType":5126,
			"count":2716,
			"max":[
				0.0015701024094596505,
				0.004487030208110809,
				0.03838498145341873
			],
			"min":[
				-0.05802827700972557,
				-0.05187419801950455,
				-0.019253943115472794
			],
			"type":"VEC3"
		},
		{
			"bufferView":40,
			"componentType":5126,
			"count":2716,
			"type":"VEC3"
		},
		{
			"bufferView":41,
			"componentType":5126,
			"count":2716,
			"type":"VEC2"
		},
		{
			"bufferView":42,
			"componentType":5123,
			"count":11601,
			"type":"SCALAR"
		},
		{
			"bufferView":43,
			"componentType":5126,
			"count":2716,
			"max":[
				-9.974464774131775e-07,
				0.0012304976116865873,
				8.202390745282173e-05
			],
			"min":[
				-0.0072789266705513,
				-0.003635719418525696,
				-0.0012530889362096786
			],
			"type":"VEC3"
		},
		{
			"bufferView":44,
			"componentType":5126,
			"count":2716,
			"type":"VEC3"
		},
		{
			"bufferView":45,
			"componentType":5126,
			"count":2716,
			"max":[
				0.0013162530958652496,
				0.0010926425457000732,
				0
			],
			"min":[
				0,
				-0.00047657638788223267,
				-0.0008127167820930481
			],
			"type":"VEC3"
		},
		{
			"bufferView":46,
			"componentType":5126,
			"count":2716,
			"type":"VEC3"
		},
		{
			"bufferView":47,
			"componentType":5126,
			"count":2716,
			"max":[
				0.0001119198277592659,
				0,
				0
			],
			"min":[
				0,
				-4.248693585395813e-05,
				0
			],
			"type":"VEC3"
		},
		{
			"bufferView":48,
			"componentType":5126,
			"count":2716,
			"type":"VEC3"
		},
		{
			"bufferView":49,
			"componentType":5126,
			"count":2716,
			"max":[
				0.0001119198277592659,
				0,
				0
			],
			"min":[
				0,
				-4.248693585395813e-05,
				0
			],
			"type":"VEC3"
		},
		{
			"bufferView":50,
			"componentType":5126,
			"count":2716,
			"type":"VEC3"
		},
		{
			"bufferView":51,
			"componentType":5126,
			"count":2716,
			"max":[
				-9.974464774131775e-07,
				0.0012304976116865873,
				8.202390745282173e-05
			],
			"min":[
				-0.0072789266705513,
				-0.003635719418525696,
				-0.0012530889362096786
			],
			"type":"VEC3"
		},
		{
			"bufferView":52,
			"componentType":5126,
			"count":2716,
			"type":"VEC3"
		},
		{
			"bufferView":53,
			"componentType":5126,
			"count":64,
			"max":[
				1,
				1,
				1
			],
			"min":[
				-1,
				-1,
				-1
			],
			"type":"VEC3"
		},
		{
			"bufferView":54,
			"componentType":5126,
			"count":64,
			"type":"VEC3"
		},
		{
			"bufferView":55,
			"componentType":5126,
			"count":64,
			"type":"VEC2"
		},
		{
			"bufferView":56,
			"componentType":5123,
			"count":96,
			"type":"SCALAR"
		},
		{
			"bufferView":57,
			"componentType":5126,
			"count":1358,
			"max":[
				0.031392503529787064,
				0.042609646916389465,
				0.047237951308488846
			],
			"min":[
				-0.047590985894203186,
				-0.038252562284469604,
				-0.040421806275844574
			],
			"type":"VEC3"
		},
		{
			"bufferView":58,
			"componentType":5126,
			"count":1358,
			"type":"VEC3"
		},
		{
			"bufferView":59,
			"componentType":5126,
			"count":1358,
			"type":"VEC2"
		},
		{
			"bufferView":60,
			"componentType":5123,
			"count":7815,
			"type":"SCALAR"
		},
		{
			"bufferView":61,
			"componentType":5126,
			"count":1498,
			"max":[
				0.02210012450814247,
				0.051374778151512146,
				0.03744136542081833
			],
			"min":[
				-0.04870746284723282,
				-0.027959683910012245,
				-0.03940092399716377
			],
			"type":"VEC3"
		},
		{
			"bufferView":62,
			"componentType":5126,
			"count":1498,
			"type":"VEC3"
		},
		{
			"bufferView":63,
			"componentType":5126,
			"count":1498,
			"type":"VEC2"
		},
		{
			"bufferView":64,
			"componentType":5123,
			"count":8781,
			"type":"SCALAR"
		},
		{
			"bufferView":65,
			"componentType":5126,
			"count":4,
			"max":[
				1,
				0,
				1
			],
			"min":[
				-1,
				0,
				-1
			],
			"type":"VEC3"
		},
		{
			"bufferView":66,
			"componentType":5126,
			"count":4,
			"type":"VEC3"
		},
		{
			"bufferView":67,
			"componentType":5126,
			"count":4,
			"type":"VEC2"
		},
		{
			"bufferView":68,
			"componentType":5123,
			"count":6,
			"type":"SCALAR"
		},
		{
			"bufferView":69,
			"componentType":5126,
			"count":100,
			"max":[
				4.166666666666667
			],
			"min":[
				0.041666666666666664
			],
			"type":"SCALAR"
		},
		{
			"bufferView":70,
			"componentType":5126,
			"count":500,
			"type":"SCALAR"
		},
		{
			"bufferView":71,
			"componentType":5126,
			"count":50,
			"max":[
				2.0833333333333335
			],
			"min":[
				0.041666666666666664
			],
			"type":"SCALAR"
		},
		{
			"bufferView":72,
			"componentType":5126,
			"count":50,
			"type":"VEC3"
		}
	],
	"bufferViews":[
		{
			"buffer":0,
			"byteLength":75816,
			"byteOffset":0,
			"target":34962
		},
		{
			"buffer":0,
			"byteLength":75816,
			"byteOffset":75816,
			"target":34962
		},
		{
			"buffer":0,
			"byteLength":50544,
			"byteOffset":151632,
			"target":34962
		},
		{
			"buffer":0,
			"byteLength":69120,
			"byteOffset":202176,
			"target":34963
		},
		{
			"buffer":0,
			"byteLength":34476,
			"byteOffset":271296,
			"target":34962
		},
		{
			"buffer":0,
			"byteLength":34476,
			"byteOffset":305772,
			"target":34962
		},
		{
			"buffer":0,
			"byteLength":22984,
			"byteOffset":340248,
			"target":34962
		},
		{
			"buffer":0,
			"byteLength":30960,
			"byteOffset":363232,
			"target":34963
		},
		{
			"buffer":0,
			"byteLength":11792,
			"byteOffset":394192,
			"target":34962
		},
		{
			"buffer":0,
			"byteLength":17688,
			"byteOffset":405984,
			"target":34962
		},
		{
			"buffer":0,
			"byteLength":17688,
			"byteOffset":423672,
			"target":34962
		},
		{
			"buffer":0,
			"byteLength":11792,
			"byteOffset":441360,
			"target":34962
		},
		{
			"buffer":0,
			"byteLength":14718,
			"byteOffset":453152,
			"target":34963
		},
		{
			"buffer":0,
			"byteLength":17688,
			"byteOffset":467872,
			"target":34962
		},
		{
			"buffer":0,
			"byteLength":17688,
			"byteOffset":485560,
			"target":34962
		},
		{
			"buffer":0,
			"byteLength":17688,
			"byteOffset":503248,
			"target":34962
		},
		{
			"buffer":0,
			"byteLength":17688,
			"byteOffset":520936,
			"target":34962
		},
		{
			"buffer":0,
			"byteLength":17688,
			"byteOffset":538624,
			"target":34962
		},
		{
			"buffer":0,
			"byteLength":17688,
			"byteOffset":556312,
			"target":34962
		},
		{
			"buffer":0,
			"byteLength":17688,
			"byteOffset":574000,
			"target":34962
		},
		{
			"buffer":0,
			"byteLength":17688,
			"byteOffset":591688,
			"target":34962
		},
		{
			"buffer":0,
			"byteLength":17688,
			"byteOffset":609376,
			"target":34962
		},
		{
			"buffer":0,
			"byteLength":17688,
			"byteOffset":627064,
			"target":34962
		},
		{
			"buffer":0,
			"byteLength":10536,
			"byteOffset":644752,
			"target":34962
		},
		{
			"buffer":0,
			"byteLength":15804,
			"byteOffset":655288,
			"target":34962
		},
		{
			"buffer":0,
			"byteLength":15804,
			"byteOffset":671092,
			"target":34962
		},
		{
			"buffer":0,
			"byteLength":10536,
			"byteOffset":686896,
			"target":34962
		},
		{
			"buffer":0,
			"byteLength":11658,
			"byteOffset":697432,
			"target":34963
		},
		{
			"buffer":0,
			"byteLength":15804,
			"byteOffset":709092,
			"target":34962
		},
		{
			"buffer":0,
			"byteLength":15804,
			"byteOffset":724896,
			"target":34962
		},
		{
			"buffer":0,
			"byteLength":15804,
			"byteOffset":740700,
			"target":34962
		},
		{
			"buffer":0,
			"byteLength":15804,
			"byteOffset":756504,
			"target":34962
		},
		{
			"buffer":0,
			"byteLength":15804,
			"byteOffset":772308,
			"target":34962
		},
		{
			"buffer":0,
			"byteLength":15804,
			"byteOffset":788112,
			"target":34962
		},
		{
			"buffer":0,
			"byteLength":15804,
			"byteOffset":803916,
			"target":34962
		},
		{
			"buffer":0,
			"byteLength":15804,
			"byteOffset":819720,
			"target":34962
		},
		{
			"buffer":0,
			"byteLength":15804,
			"byteOffset":835524,
			"target":34962
		},
		{
			"buffer":0,
			"byteLength":15804,
			"byteOffset":851328,
			"target":34962
		},
		{
			"buffer":0,
			"byteLength":21728,
			"byteOffset":867132,
			"target":34962
		},
		{
			"buffer":0,
			"byteLength":32592,
			"byteOffset":888860,
			"target":34962
		},
		{
			"buffer":0,
			"byteLength":32592,
			"byteOffset":921452,
			"target":34962
		},
		{
			"buffer":0,
			"byteLength":21728,
			"byteOffset":954044,
			"target":34962
		},
		{
			"buffer":0,
			"byteLength":23202,
			"byteOffset":975772,
			"target":34963
		},
		{
			"buffer":0,
			"byteLength":32592,
			"byteOffset":998976,
			"target":34962
		},
		{
			"buffer":0,
			"byteLength":32592,
			"byteOffset":1031568,
			"target":34962
		},
		{
			"buffer":0,
			"byteLength":32592,
			"byteOffset":1064160,
			"target":34962
		},
		{
			"buffer":0,
			"byteLength":32592,
			"byteOffset":1096752,
			"target":34962
		},
		{
			"buffer":0,
			"byteLength":32592,
			"byteOffset":1129344,
			"target":34962
		},
		{
			"buffer":0,
			"byteLength":32592,
			"byteOffset":1161936,
			"target":34962
		},
		{
			"buffer":0,
			"byteLength":32592,
			"byteOffset":1194528,
			"target":34962
		},
		{
			"buffer":0,
			"byteLength":32592,
			"byteOffset":1227120,
			"target":34962
		},
		{
			"buffer":0,
			"byteLength":32592,
			"byteOffset":1259712,
			"target":34962
		},
		{
			"buffer":0,
			"byteLength":32592,
			"byteOffset":1292304,
			"target":34962
		},
		{
			"buffer":0,
			"byteLength":768,
			"byteOffset":1324896,
			"target":34962
		},
		{
			"buffer":0,
			"byteLength":768,
			"byteOffset":1325664,
			"target":34962
		},
		{
			"buffer":0,
			"byteLength":512,
			"byteOffset":1326432,
			"target":34962
		},
		{
			"buffer":0,
			"byteLength":192,
			"byteOffset":1326944,
			"target":34963
		},
		{
			"buffer":0,
			"byteLength":16296,
			"byteOffset":1327136,
			"target":34962
		},
		{
			"buffer":0,
			"byteLength":16296,
			"byteOffset":1343432,
			"target":34962
		},
		{
			"buffer":0,
			"byteLength":10864,
			"byteOffset":1359728,
			"target":34962
		},
		{
			"buffer":0,
			"byteLength":15630,
			"byteOffset":1370592,
			"target":34963
		},
		{
			"buffer":0,
			"byteLength":17976,
			"byteOffset":1386224,
			"target":34962
		},
		{
			"buffer":0,
			"byteLength":17976,
			"byteOffset":1404200,
			"target":34962
		},
		{
			"buffer":0,
			"byteLength":11984,
			"byteOffset":1422176,
			"target":34962
		},
		{
			"buffer":0,
			"byteLength":17562,
			"byteOffset":1434160,
			"target":34963
		},
		{
			"buffer":0,
			"byteLength":48,
			"byteOffset":1451724,
			"target":34962
		},
		{
			"buffer":0,
			"byteLength":48,
			"byteOffset":1451772,
			"target":34962
		},
		{
			"buffer":0,
			"byteLength":32,
			"byteOffset":1451820,
			"target":34962
		},
		{
			"buffer":0,
			"byteLength":12,
			"byteOffset":1451852,
			"target":34963
		},
		{
			"buffer":0,
			"byteLength":400,
			"byteOffset":1451864
		},
		{
			"buffer":0,
			"byteLength":2000,
			"byteOffset":1452264
		},
		{
			"buffer":0,
			"byteLength":200,
			"byteOffset":1454264
		},
		{
			"buffer":0,
			"byteLength":600,
			"byteOffset":1454464
		}
	],
	"buffers":[
		{
			"byteLength":1455064,
			"uri":"data:application/octet-stream;base64,"
		}
	]
}
