{
	"asset":{
		"generator":"Khronos glTF Blender I/O v3.6.27",
		"version":"2.0"
	},
	"extensionsUsed":[
		"KHR_materials_clearcoat",
		"KHR_materials_specular",
		"KHR_materials_ior"
	],
	"scene":9,
	"scenes":[
		{
			"name":" Hypoplastic Left Heart Syndrome "
		},
		{
			"name":"Atrial septal ",
			"nodes":[
				0
			]
		},
		{
			"name":"Coarctation of the Aorta",
			"nodes":[
				1
			]
		},
		{
			"name":"insufficiency"
		},
		{
			"name":"normal heart"
		},
		{
			"name":"Patent Ductus Arteriosus (PDA)"
		},
		{
			"name":"Scene"
		},
		{
			"name":"Scene.001",
			"nodes":[
				2
			]
		},
		{
			"name":"Scene.002",
			"nodes":[
				3
			]
		},
		{
			"name":"Scene.003",
			"nodes":[
				4
			]
		},
		{
			"name":"Stenosis"
		},
		{
			"name":"tetralogy of fallout"
		},
		{
			"name":"transposition of great arties",
			"nodes":[
				5
			]
		},
		{
			"name":"x_ray",
			"nodes":[
				6
			]
		}
	],
	"nodes":[
		{
			"mesh":0,
			"name":"Rightatrium.009",
			"scale":[
				30.725460052490234,
				30.725452423095703,
				30.725452423095703
			],
			"translation":[
				-0.9300339818000793,
				0.18998286128044128,
				0.10425149649381638
			]
		},
		{
			"mesh":1,
			"name":"a1.019",
			"scale":[
				30.725452423095703,
				30.725452423095703,
				30.725452423095703
			],
			"translation":[
				0.03494137153029442,
				2.331519842147827,
				-0.6179376840591431
			]
		},
		{
			"mesh":2,
			"name":"Left atrium.010",
			"scale":[
				30.72545051574707,
				30.72545051574707,
				30.72545051574707
			],
			"translation":[
				0.22068136930465698,
				0.5280245542526245,
				-0.691150963306427
			]
		},
		{
			"mesh":3,
			"name":"Cube.001",
			"translation":[
				-0.8523449301719666,
				0.14402161538600922,
				0.11346206068992615
			]
		},
		{
			"mesh":4,
			"name":"Left atrium.008",
			"scale":[
				30.72545051574707,
				30.72545051574707,
				30.72545051574707
			],
			"translation":[
				0.22068136930465698,
				0.5280245542526245,
				-0.691150963306427
			]
		},
		{
			"mesh":5,
			"name":"Cylinder.010",
			"rotation":[
				0.07941722124814987,
				-0.020265761762857437,
				0.19078890979290009,
				0.9782033562660217
			],
			"scale":[
				0.07229343056678772,
				0.16414375603199005,
				0.1095171719789505
			],
			"translation":[
				0.22128558158874512,
				2.4257774353027344,
				-0.35319602489471436
			]
		},
		{
			"mesh":6,
			"name":"Plane",
			"translation":[
				-6.983325958251953,
				0,
				0
			]
		}
	],
	"animations":[
		{
			"channels":[
				{
					"sampler":0,
					"target":{
						"node":2,
						"path":"translation"
					}
				},
				{
					"sampler":1,
					"target":{
						"node":2,
						"path":"rotation"
					}
				},
				{
					"sampler":2,
					"target":{
						"node":2,
						"path":"scale"
					}
				}
			],
			"name":"Actionla",
			"samplers":[
				{
					"input":39,
					"interpolation":"STEP",
					"output":40
				},
				{
					"input":39,
					"interpolation":"STEP",
					"output":41
				},
				{
					"input":39,
					"interpolation":"STEP",
					"output":42
				}
			]
		},
		{
			"channels":[
				{
					"sampler":0,
					"target":{
						"node":2,
						"path":"weights"
					}
				}
			],
			"name":"Key.025Action",
			"samplers":[
				{
					"input":43,
					"interpolation":"LINEAR",
					"output":44
				}
			]
		},
		{
			"channels":[
				{
					"sampler":0,
					"target":{
						"node":3,
						"path":"scale"
					}
				}
			],
			"name":"action1",
			"samplers":[
				{
					"input":45,
					"interpolation":"LINEAR",
					"output":46
				}
			]
		},
		{
			"channels":[
				{
					"sampler":0,
					"target":{
						"node":4,
						"path":"weights"
					}
				}
			],
			"name":"Key.130Action",
			"samplers":[
				{
					"input":43,
					"interpolation":"LINEAR",
					"output":47
				}
			]
		}
	],
	"materials":[
		{
			"doubleSided":true,
			"extensions":{
				"KHR_materials_clearcoat":{
					"clearcoatFactor":0.10000000149011612,
					"clearcoatRoughnessFactor":0.15272727608680725
				},
				"KHR_materials_specular":{
					"specularColorFactor":[
						1,
						1,
						1
					]
				},
				"KHR_materials_ior":{
					"ior":1
				}
			},
			"name":"heart3_aur.001",
			"pbrMetallicRoughness":{
				"baseColorFactor":[
					0.49102064967155457,
					0.1746472418308258,
					0.1746474802494049,
					1
				],
				"metallicFactor":0.029545454308390617,
				"roughnessFactor":0.1977272778749466
			}
		},
		{
			"doubleSided":true,
			"name":"Material.027",
			"pbrMetallicRoughness":{
				"baseColorFactor":[
					0.8000000715255737,
					0.0443703718483448,
					0.03262821212410927,
					1
				],
				"metallicFactor":0,
				"roughnessFactor":0.5
			}
		},
		{
			"doubleSided":true,
			"extensions":{
				"KHR_materials_specular":{
					"specularColorFactor":[
						1.436471558237221,
						1.436471558237221,
						1.436471558237221
					]
				},
				"KHR_materials_ior":{
					"ior":1.4500000476837158
				}
			},
			"name":"veins.002",
			"pbrMetallicRoughness":{
				"baseColorFactor":[
					0.7230550050735474,
					0.04079781472682953,
					0.03187604621052742,
					1
				],
				"metallicFactor":0,
				"roughnessFactor":0.27977192401885986
			}
		},
		{
			"doubleSided":true,
			"extensions":{
				"KHR_materials_specular":{
					"specularColorFactor":[
						0.5795118022718059,
						0.1866829978561127,
						0.17220375266858634
					]
				},
				"KHR_materials_ior":{
					"ior":1.4500000476837158
				}
			},
			"name":"rightatrium",
			"pbrMetallicRoughness":{
				"baseColorFactor":[
					0.7930589914321899,
					0.09758127480745316,
					0.07194671779870987,
					1
				],
				"metallicFactor":0,
				"roughnessFactor":0.4498984217643738
			}
		},
		{
			"doubleSided":true,
			"extensions":{
				"KHR_materials_specular":{
					"specularColorFactor":[
						0.5795118022718059,
						0.1866829978561127,
						0.17220375266858634
					]
				},
				"KHR_materials_ior":{
					"ior":1.4500000476837158
				}
			},
			"name":"rightatrium.002",
			"pbrMetallicRoughness":{
				"baseColorFactor":[
					0.7930589914321899,
					0.09758127480745316,
					0.07194671779870987,
					1
				],
				"metallicFactor":0,
				"roughnessFactor":0.4498984217643738
			}
		},
		{
			"doubleSided":true,
			"extensions":{
				"KHR_materials_specular":{
					"specularColorFactor":[
						1.8831370288874123,
						1.8831370288874123,
						1.8831370288874123
					]
				},
				"KHR_materials_ior":{
					"ior":1.4500000476837158
				}
			},
			"name":"Material.070",
			"pbrMetallicRoughness":{
				"baseColorFactor":[
					0.8000000715255737,
					0.4576399624347687,
					0.3028404116630554,
					1
				],
				"metallicFactor":0,
				"roughnessFactor":0.6848739385604858
			}
		},
		{
			"doubleSided":true,
			"name":"daasaaas",
			"pbrMetallicRoughness":{
				"baseColorFactor":[
					0.8000000715255737,
					0.23750481009483337,
					0.09309069812297821,
					1
				],
				"metallicFactor":0,
				"roughnessFactor":0.5
			}
		}
	],
	"meshes":[
		{
			"name":"Right atrium.010",
			"primitives":[
				{
					"attributes":{
						"POSITION":0,
						"NORMAL":1,
						"TEXCOORD_0":2
					},
					"indices":3,
					"material":0
				},
				{
					"attributes":{
						"POSITION":4,
						"NORMAL":5,
						"TEXCOORD_0":6
					},
					"indices":7,
					"material":1
				}
			]
		},
		{
			"name":"Aortic arch.008",
			"primitives":[
				{
					"attributes":{
						"POSITION":8,
						"NORMAL":9,
						"TEXCOORD_0":10
					},
					"indices":11,
					"material":2
				}
			]
		},
		{
			"extras":{
				"targetNames":[
					"Lattice"
				]
			},
			"name":"Left atrium.010",
			"primitives":[
				{
					"attributes":{
						"COLOR_0":12,
						"POSITION":13,
						"NORMAL":14,
						"TEXCOORD_0":15
					},
					"indices":16,
					"material":3,
					"targets":[
						{
							"POSITION":17,
							"NORMAL":18
						}
					]
				}
			],
			"weights":[
				0.5
			]
		},
		{
			"name":"Cube.001",
			"primitives":[
				{
					"attributes":{
						"POSITION":19,
						"NORMAL":20,
						"TEXCOORD_0":21
					},
					"indices":22
				}
			]
		},
		{
			"extras":{
				"targetNames":[
					"Lattice"
				]
			},
			"name":"Left atrium.012",
			"primitives":[
				{
					"attributes":{
						"COLOR_0":23,
						"POSITION":24,
						"NORMAL":25,
						"TEXCOORD_0":26,
						"TEXCOORD_1":27
					},
					"indices":28,
					"material":4,
					"targets":[
						{
							"POSITION":29,
							"NORMAL":30
						}
					]
				}
			],
			"weights":[
				0.5
			]
		},
		{
			"name":"Cylinder.010",
			"primitives":[
				{
					"attributes":{
						"POSITION":31,
						"NORMAL":32,
						"TEXCOORD_0":33
					},
					"indices":34,
					"material":5
				}
			]
		},
		{
			"name":"Plane",
			"primitives":[
				{
					"attributes":{
						"POSITION":35,
						"NORMAL":36,
						"TEXCOORD_0":37
					},
					"indices":38,
					"material":6
				}
			]
		}
	],
	"accessors":[
		{
			"bufferView":0,
			"componentType":5126,
			"count":1949,
			"max":[
				0.025120440870523453,
				0.04724323749542236,
				0.04526347666978836
			],
			"min":[
				-0.0198708176612854,
				-0.052466750144958496,
				-0.02922019548714161
			],
			"type":"VEC3"
		},
		{
			"bufferView":1,
			"componentType":5126,
			"count":1949,
			"type":"VEC3"
		},
		{
			"bufferView":2,
			"componentType":5126,
			"count":1949,
			"type":"VEC2"
		},
		{
			"bufferView":3,
			"componentType":5123,
			"count":9108,
			"type":"SCALAR"
		},
		{
			"bufferView":4,
			"componentType":5126,
			"count":1627,
			"max":[
				0.020984811708331108,
				0.04517471790313721,
				0.03600657731294632
			],
			"min":[
				-0.017776917666196823,
				-0.05101168155670166,
				-0.027064722031354904
			],
			"type":"VEC3"
		},
		{
			"bufferView":5,
			"componentType":5126,
			"count":1627,
			"type":"VEC3"
		},
		{
			"bufferView":6,
			"componentType":5126,
			"count":1627,
			"type":"VEC2"
		},
		{
			"bufferView":7,
			"componentType":5123,
			"count":7815,
			"type":"SCALAR"
		},
		{
			"bufferView":8,
			"componentType":5126,
			"count":481,
			"max":[
				0.024377696216106415,
				0.028911752626299858,
				0.04423194006085396
			],
			"min":[
				-0.022375039756298065,
				-0.06759251654148102,
				-0.049717165529727936
			],
			"type":"VEC3"
		},
		{
			"bufferView":9,
			"componentType":5126,
			"count":481,
			"type":"VEC3"
		},
		{
			"bufferView":10,
			"componentType":5126,
			"count":481,
			"type":"VEC2"
		},
		{
			"bufferView":11,
			"componentType":5123,
			"count":2592,
			"type":"SCALAR"
		},
		{
			"bufferView":12,
			"componentType":5123,
			"count":3547,
			"normalized":true,
			"type":"VEC4"
		},
		{
			"bufferView":13,
			"componentType":5126,
			"count":3547,
			"max":[
				0.04534319415688515,
				0.028908593580126762,
				0.05870581045746803
			],
			"min":[
				-0.043501418083906174,
				-0.04590790718793869,
				-0.027567416429519653
			],
			"type":"VEC3"
		},
		{
			"bufferView":14,
			"componentType":5126,
			"count":3547,
			"type":"VEC3"
		},
		{
			"bufferView":15,
			"componentType":5126,
			"count":3547,
			"type":"VEC2"
		},
		{
			"bufferView":16,
			"componentType":5123,
			"count":15315,
			"type":"SCALAR"
		},
		{
			"bufferView":17,
			"componentType":5126,
			"count":3547,
			"max":[
				0.00039729103446006775,
				0.00385214202105999,
				0
			],
			"min":[
				-0.0012047495692968369,
				0,
				-0.0039008352905511856
			],
			"type":"VEC3"
		},
		{
			"bufferView":18,
			"componentType":5126,
			"count":3547,
			"type":"VEC3"
		},
		{
			"bufferView":19,
			"componentType":5126,
			"count":64,
			"max":[
				1,
				1,
				1
			],
			"min":[
				-1,
				-1,
				-1
			],
			"type":"VEC3"
		},
		{
			"bufferView":20,
			"componentType":5126,
			"count":64,
			"type":"VEC3"
		},
		{
			"bufferView":21,
			"componentType":5126,
			"count":64,
			"type":"VEC2"
		},
		{
			"bufferView":22,
			"componentType":5123,
			"count":96,
			"type":"SCALAR"
		},
		{
			"bufferView":23,
			"componentType":5123,
			"count":4628,
			"normalized":true,
			"type":"VEC4"
		},
		{
			"bufferView":24,
			"componentType":5126,
			"count":4628,
			"max":[
				0.04534319415688515,
				0.029309304431080818,
				0.05870581418275833
			],
			"min":[
				-0.043501418083906174,
				-0.04590790718793869,
				-0.028397228568792343
			],
			"type":"VEC3"
		},
		{
			"bufferView":25,
			"componentType":5126,
			"count":4628,
			"type":"VEC3"
		},
		{
			"bufferView":26,
			"componentType":5126,
			"count":4628,
			"type":"VEC2"
		},
		{
			"bufferView":27,
			"componentType":5126,
			"count":4628,
			"type":"VEC2"
		},
		{
			"bufferView":28,
			"componentType":5123,
			"count":16713,
			"type":"SCALAR"
		},
		{
			"bufferView":29,
			"componentType":5126,
			"count":4628,
			"max":[
				0.00044110044836997986,
				0.0040934160351753235,
				0
			],
			"min":[
				-0.0013530992437154055,
				0,
				-0.003919372335076332
			],
			"type":"VEC3"
		},
		{
			"bufferView":30,
			"componentType":5126,
			"count":4628,
			"type":"VEC3"
		},
		{
			"bufferView":31,
			"componentType":5126,
			"count":120,
			"max":[
				1.0008350610733032,
				1.0018806457519531,
				1
			],
			"min":[
				-1.0008350610733032,
				-1.0088157653808594,
				-1
			],
			"type":"VEC3"
		},
		{
			"bufferView":32,
			"componentType":5126,
			"count":120,
			"type":"VEC3"
		},
		{
			"bufferView":33,
			"componentType":5126,
			"count":120,
			"type":"VEC2"
		},
		{
			"bufferView":34,
			"componentType":5123,
			"count":492,
			"type":"SCALAR"
		},
		{
			"bufferView":35,
			"componentType":5126,
			"count":4,
			"max":[
				1,
				0,
				1
			],
			"min":[
				-1,
				0,
				-1
			],
			"type":"VEC3"
		},
		{
			"bufferView":36,
			"componentType":5126,
			"count":4,
			"type":"VEC3"
		},
		{
			"bufferView":37,
			"componentType":5126,
			"count":4,
			"type":"VEC2"
		},
		{
			"bufferView":38,
			"componentType":5123,
			"count":6,
			"type":"SCALAR"
		},
		{
			"bufferView":39,
			"componentType":5126,
			"count":2,
			"max":[
				4.166666666666667
			],
			"min":[
				0.041666666666666664
			],
			"type":"SCALAR"
		},
		{
			"bufferView":40,
			"componentType":5126,
			"count":2,
			"type":"VEC3"
		},
		{
			"bufferView":41,
			"componentType":5126,
			"count":2,
			"type":"VEC4"
		},
		{
			"bufferView":42,
			"componentType":5126,
			"count":2,
			"type":"VEC3"
		},
		{
			"bufferView":43,
			"componentType":5126,
			"count":100,
			"max":[
				4.166666666666667
			],
			"min":[
				0.041666666666666664
			],
			"type":"SCALAR"
		},
		{
			"bufferView":44,
			"componentType":5126,
			"count":100,
			"type":"SCALAR"
		},
		{
			"bufferView":45,
			"componentType":5126,
			"count":50,
			"max":[
				2.0833333333333335
			],
			"min":[
				0.041666666666666664
			],
			"type":"SCALAR"
		},
		{
			"bufferView":46,
			"componentType":5126,
			"count":50,
			"type":"VEC3"
		},
		{
			"bufferView":47,
			"componentType":5126,
			"count":100,
			"type":"SCALAR"
		}
	],
	"bufferViews":[
		{
			"buffer":0,
			"byteLength":23388,
			"byteOffset":0,
			"target":34962
		},
		{
			"buffer":0,
			"byteLength":23388,
			"byteOffset":23388,
			"target":34962
		},
		{
			"buffer":0,
			"byteLength":15592,
			"byteOffset":46776,
			"target":34962
		},
		{
			"buffer":0,
			"byteLength":18216,
			"byteOffset":62368,
			"target":34963
		},
		{
			"buffer":0,
			"byteLength":19524,
			"byteOffset":80584,
			"target":34962
		},
		{
			"buffer":0,
			"byteLength":19524,
			"byteOffset":100108,
			"target":34962
		},
		{
			"buffer":0,
			"byteLength":13016,
			"byteOffset":119632,
			"target":34962
		},
		{
			"buffer":0,
			"byteLength":15630,
			"byteOffset":132648,
			"target":34963
		},
		{
			"buffer":0,
			"byteLength":5772,
			"byteOffset":148280,
			"target":34962
		},
		{
			"buffer":0,
			"byteLength":5772,
			"byteOffset":154052,
			"target":34962
		},
		{
			"buffer":0,
			"byteLength":3848,
			"byteOffset":159824,
			"target":34962
		},
		{
			"buffer":0,
			"byteLength":5184,
			"byteOffset":163672,
			"target":34963
		},
		{
			"buffer":0,
			"byteLength":28376,
			"byteOffset":168856,
			"target":34962
		},
		{
			"buffer":0,
			"byteLength":42564,
			"byteOffset":197232,
			"target":34962
		},
		{
			"buffer":0,
			"byteLength":42564,
			"byteOffset":239796,
			"target":34962
		},
		{
			"buffer":0,
			"byteLength":28376,
			"byteOffset":282360,
			"target":34962
		},
		{
			"buffer":0,
			"byteLength":30630,
			"byteOffset":310736,
			"target":34963
		},
		{
			"buffer":0,
			"byteLength":42564,
			"byteOffset":341368,
			"target":34962
		},
		{
			"buffer":0,
			"byteLength":42564,
			"byteOffset":383932,
			"target":34962
		},
		{
			"buffer":0,
			"byteLength":768,
			"byteOffset":426496,
			"target":34962
		},
		{
			"buffer":0,
			"byteLength":768,
			"byteOffset":427264,
			"target":34962
		},
		{
			"buffer":0,
			"byteLength":512,
			"byteOffset":428032,
			"target":34962
		},
		{
			"buffer":0,
			"byteLength":192,
			"byteOffset":428544,
			"target":34963
		},
		{
			"buffer":0,
			"byteLength":37024,
			"byteOffset":428736,
			"target":34962
		},
		{
			"buffer":0,
			"byteLength":55536,
			"byteOffset":465760,
			"target":34962
		},
		{
			"buffer":0,
			"byteLength":55536,
			"byteOffset":521296,
			"target":34962
		},
		{
			"buffer":0,
			"byteLength":37024,
			"byteOffset":576832,
			"target":34962
		},
		{
			"buffer":0,
			"byteLength":37024,
			"byteOffset":613856,
			"target":34962
		},
		{
			"buffer":0,
			"byteLength":33426,
			"byteOffset":650880,
			"target":34963
		},
		{
			"buffer":0,
			"byteLength":55536,
			"byteOffset":684308,
			"target":34962
		},
		{
			"buffer":0,
			"byteLength":55536,
			"byteOffset":739844,
			"target":34962
		},
		{
			"buffer":0,
			"byteLength":1440,
			"byteOffset":795380,
			"target":34962
		},
		{
			"buffer":0,
			"byteLength":1440,
			"byteOffset":796820,
			"target":34962
		},
		{
			"buffer":0,
			"byteLength":960,
			"byteOffset":798260,
			"target":34962
		},
		{
			"buffer":0,
			"byteLength":984,
			"byteOffset":799220,
			"target":34963
		},
		{
			"buffer":0,
			"byteLength":48,
			"byteOffset":800204,
			"target":34962
		},
		{
			"buffer":0,
			"byteLength":48,
			"byteOffset":800252,
			"target":34962
		},
		{
			"buffer":0,
			"byteLength":32,
			"byteOffset":800300,
			"target":34962
		},
		{
			"buffer":0,
			"byteLength":12,
			"byteOffset":800332,
			"target":34963
		},
		{
			"buffer":0,
			"byteLength":8,
			"byteOffset":800344
		},
		{
			"buffer":0,
			"byteLength":24,
			"byteOffset":800352
		},
		{
			"buffer":0,
			"byteLength":32,
			"byteOffset":800376
		},
		{
			"buffer":0,
			"byteLength":24,
			"byteOffset":800408
		},
		{
			"buffer":0,
			"byteLength":400,
			"byteOffset":800432
		},
		{
			"buffer":0,
			"byteLength":400,
			"byteOffset":800832
		},
		{
			"buffer":0,
			"byteLength":200,
			"byteOffset":801232
		},
		{
			"buffer":0,
			"byteLength":600,
			"byteOffset":801432
		},
		{
			"buffer":0,
			"byteLength":400,
			"byteOffset":802032
		}
	],
	"buffers":[
		{
			"byteLength":802432,
			"uri":"data:application/octet-stream;base64,"
		}
	]
}
